<?xml version="1.0" standalone="no"?>
<!DOCTYPE svg PUBLIC "-//W3C//DTD SVG 20010904//EN"
 "http://www.w3.org/TR/2001/REC-SVG-20010904/DTD/svg10.dtd">
<svg version="1.0" xmlns="http://www.w3.org/2000/svg"
 width="1197.000000pt" height="1197.000000pt" viewBox="0 0 1197.000000 1197.000000"
 preserveAspectRatio="xMidYMid meet">
<metadata>
Created by potrace 1.11, written by Peter Selinger 2001-2013
</metadata>
<g transform="translate(0.000000,1197.000000) scale(0.100000,-0.100000)"
fill="#000000" stroke="none">
<path d="M257 8748 c-3 -24 -1 -45 4 -49 6 -3 74 -11 152 -18 352 -30 850 -84
1167 -125 670 -87 2623 -317 3230 -380 996 -104 1906 -168 2935 -208 420 -16
1740 -16 2085 0 289 14 667 38 743 48 46 6 47 5 47 -21 l0 -27 110 4 c83 2
110 0 110 -9 0 -19 -35 -24 -160 -21 -112 3 -114 3 -121 28 -6 21 -7 22 -8 4
-1 -11 -3 -23 -6 -26 -5 -4 -65 4 -207 27 -25 5 -38 3 -38 -4 0 -6 10 -11 23
-12 12 0 45 -7 72 -14 l50 -14 -73 2 c-51 2 -76 7 -82 17 -6 10 -10 -30 -10
-111 l0 -127 -77 -6 c-418 -34 -1200 -49 -1828 -36 -275 5 -543 12 -595 15
-52 3 -194 10 -315 15 -715 34 -1507 98 -2325 190 -541 61 -2229 277 -3009
386 -216 30 -567 72 -780 94 -212 22 -400 42 -418 44 -31 4 -32 3 -39 -40 -3
-25 -5 -46 -3 -48 2 -2 186 -22 409 -45 223 -23 518 -58 655 -77 819 -113
1399 -188 2440 -318 1360 -170 2232 -246 3400 -296 407 -18 1369 -24 1740 -11
342 11 667 28 716 36 l26 4 -1 -79 c0 -43 2 -81 6 -85 3 -4 64 5 134 19 70 14
147 26 171 26 l44 0 -3 -37 -3 -38 -63 -7 c-532 -59 -1336 -85 -2075 -68
-1093 24 -1971 93 -3257 256 -956 120 -1645 211 -2115 279 -198 29 -496 63
-971 111 l-61 6 -7 -42 c-4 -24 -5 -44 -3 -47 4 -4 83 -13 517 -58 135 -14
403 -48 595 -75 598 -85 1871 -250 2495 -324 1236 -147 2417 -216 3485 -203
563 7 960 26 1331 63 l61 6 -4 -71 -3 -71 27 0 c16 1 69 10 118 21 66 15 141
22 283 26 l193 5 -7 169 c-6 134 -4 169 6 169 7 0 10 8 7 19 -2 10 0 26 5 35
6 10 5 20 -4 29 -10 11 -42 13 -150 9 l-138 -5 0 92 c0 67 4 96 14 107 11 11
45 14 141 14 l127 0 -6 28 c-12 57 -19 312 -9 312 15 0 22 73 8 86 -8 8 -70
10 -206 8 -106 -2 -245 -4 -306 -4 l-113 0 0 -37 0 -38 150 3 c145 4 150 3
150 -16 0 -16 8 -22 33 -25 l32 -4 -32 -1 c-18 -1 -33 -6 -33 -12 0 -6 -43
-10 -109 -10 -106 0 -110 -1 -113 -22 -4 -27 -6 -27 -403 -52 -418 -27 -772
-36 -1395 -36 -1298 0 -2592 72 -4045 226 -635 67 -2428 278 -3135 368 -190
25 -385 50 -435 56 -88 10 -909 90 -931 90 -6 0 -14 -19 -17 -42z m10558 -478
c65 0 104 -4 96 -9 -7 -5 -87 -9 -177 -10 -148 -2 -164 0 -164 15 0 15 8 16
68 11 37 -4 117 -7 177 -7z m315 -70 c0 -5 -19 -9 -42 -9 -40 1 -41 2 -13 9
44 11 55 11 55 0z m-279 -82 c0 -10 2 -10 6 0 3 8 27 12 69 12 l64 0 0 -65 0
-65 -172 2 -173 3 -3 63 -3 62 106 0 c77 0 105 -3 106 -12z m265 -41 c1 -1 5
-23 8 -49 l7 -48 -60 0 -61 0 0 56 0 57 52 -7 c29 -4 53 -8 54 -9z m14 -141
c0 -2 3 -11 6 -20 5 -14 -8 -16 -112 -16 -94 0 -116 3 -106 13 7 7 51 15 100
18 48 3 93 6 100 7 6 1 12 0 12 -2z m-260 -30 c0 -17 -44 -25 -182 -33 -90 -5
-107 -9 -111 -24 -3 -9 0 -22 6 -28 8 -8 -18 -11 -91 -11 l-102 0 0 -45 c0
-40 -3 -45 -22 -45 -13 0 -33 -3 -45 -6 -22 -6 -23 -4 -23 70 l0 76 135 0 135
0 0 25 0 24 138 4 c75 1 143 4 150 5 6 1 12 -4 12 -12z m-335 -6 c4 -6 -11
-10 -38 -10 -24 0 -78 -3 -120 -6 -67 -6 -77 -5 -77 10 0 14 15 16 114 16 66
0 117 -4 121 -10z m325 -70 c0 -5 -9 -10 -19 -10 -11 0 -23 5 -26 10 -4 6 5
10 19 10 14 0 26 -4 26 -10z m-280 -82 l0 -43 25 30 c13 17 24 36 25 43 0 8
20 12 65 12 l65 0 0 -70 c0 -58 3 -70 16 -70 13 0 15 8 12 35 -4 37 3 41 50
29 19 -6 22 -13 22 -55 l0 -49 -140 0 c-136 0 -140 -1 -140 -21 0 -20 3 -21
132 -18 94 3 133 8 136 17 6 20 22 3 22 -26 l0 -27 -150 -1 c-138 0 -150 1
-150 18 0 16 -11 18 -135 18 l-135 0 0 24 c0 21 5 24 61 30 92 9 189 7 190 -4
1 -5 2 -14 3 -19 3 -23 16 -21 16 2 0 26 2 27 54 27 30 0 58 5 61 10 5 9 -93
16 -147 11 -13 -2 -18 7 -20 36 l-3 38 -47 -1 c-48 0 -48 0 -48 33 l0 33 80 0
80 0 0 -42z m350 -128 c0 -5 -7 -10 -16 -10 -8 0 -12 5 -9 10 3 6 10 10 16 10
5 0 9 -4 9 -10z m210 -66 c0 -12 -6 -15 -22 -10 -13 3 -30 6 -38 7 -8 1 -1 5
15 9 45 11 45 11 45 -6z m-595 -10 c-46 -8 -231 -21 -238 -17 -25 15 20 23
131 22 70 -1 118 -3 107 -5z m-155 -49 c-66 -17 -90 -18 -90 -6 0 13 26 19 90
19 l55 0 -55 -13z m471 -17 c0 -10 2 -10 6 0 3 7 26 12 63 12 56 0 58 -1 64
-31 3 -17 6 -47 6 -65 l0 -34 -150 0 c-141 0 -150 1 -150 19 0 33 -11 51 -31
51 -14 0 -19 7 -19 30 l0 30 105 0 c77 0 105 -3 106 -12z m260 -47 c4 -3 9
-25 13 -48 l6 -43 -60 0 -60 0 0 56 0 55 48 -7 c26 -3 50 -9 53 -13z m-271
-121 c0 -19 -7 -20 -140 -20 -110 0 -140 3 -140 13 0 8 3 17 7 20 3 4 66 7
140 7 126 0 133 -1 133 -20z m290 -35 c0 -13 -28 -15 -187 -15 -104 0 -233 -3
-287 -7 -74 -5 -97 -3 -92 5 5 8 60 12 181 12 105 0 176 4 180 10 3 6 50 10
106 10 81 0 99 -3 99 -15z m-391 -39 c-6 -7 -138 -36 -160 -36 -12 0 -19 5
-17 13 3 7 32 14 74 18 38 3 78 6 88 7 11 1 17 0 15 -2z"/>
<path d="M872 5933 l3 -958 143 -3 142 -3 0 421 0 420 275 0 275 0 0 -420 0
-421 143 3 142 3 3 958 2 957 -145 0 -145 0 0 -375 0 -375 -275 0 -275 0 0
375 0 375 -145 0 -145 0 2 -957z"/>
<path d="M6832 5933 l3 -958 132 -3 133 -3 2 617 3 617 277 -614 276 -614 146
-3 146 -3 0 961 0 960 -135 0 -135 0 -2 -627 -3 -627 -280 627 -280 627 -143
0 -142 0 2 -957z"/>
<path d="M8240 5930 l0 -960 535 0 535 0 0 165 0 165 -390 0 -390 0 0 255 0
255 348 2 347 3 3 163 2 162 -350 0 -350 0 0 210 0 210 375 0 375 0 0 165 0
165 -520 0 -520 0 0 -960z"/>
<path d="M9440 6725 l0 -165 205 0 205 0 0 -795 0 -795 145 0 145 0 0 795 0
795 205 0 205 0 0 165 0 165 -555 0 -555 0 0 -165z"/>
<path d="M2680 6388 c-220 -25 -394 -231 -446 -530 -20 -112 -14 -346 11 -447
36 -149 100 -268 185 -344 190 -171 453 -166 627 11 75 77 118 150 159 270
107 314 44 699 -149 902 -106 111 -230 156 -387 138z m128 -314 c129 -54 196
-250 171 -500 -11 -105 -33 -175 -75 -236 -70 -100 -204 -119 -287 -40 -72 68
-106 163 -114 322 -7 145 8 239 53 330 60 119 154 165 252 124z"/>
<path d="M3969 6389 c-25 -4 -65 -17 -89 -29 -48 -25 -129 -101 -160 -152
l-20 -33 0 93 0 92 -125 0 -125 0 0 -695 0 -695 135 0 135 0 0 333 c1 568 16
685 99 760 45 41 94 52 147 35 32 -11 44 -22 64 -63 l25 -50 3 -508 3 -508
137 3 137 3 5 460 c5 396 8 467 23 511 25 76 56 116 110 143 43 21 53 22 87
12 57 -17 87 -62 100 -147 5 -38 10 -275 10 -526 l0 -458 135 0 135 0 0 533
c0 591 -3 621 -63 731 -93 169 -297 210 -455 90 -19 -15 -53 -53 -77 -86 l-44
-59 -21 41 c-63 124 -181 188 -311 169z"/>
<path d="M5531 6388 c-166 -25 -309 -187 -373 -423 -19 -70 -22 -106 -22 -295
-1 -190 2 -225 21 -302 59 -232 173 -367 348 -413 183 -47 354 18 462 176 43
63 107 229 88 229 -8 0 -222 48 -247 56 -13 4 -20 -7 -32 -50 -26 -87 -88
-146 -153 -146 -37 1 -102 31 -130 61 -38 42 -72 130 -79 207 l-7 72 337 0
336 0 0 38 c0 71 -21 277 -35 343 -66 314 -263 485 -514 447z m119 -288 c76
-21 137 -120 147 -240 l6 -70 -198 0 -198 0 7 61 c15 127 74 226 149 248 43
12 47 12 87 1z"/>
<path d="M1290 4778 c-62 -14 -140 -21 -290 -26 -158 -5 -204 -10 -202 -20 1
-7 5 -80 9 -162 5 -114 3 -153 -7 -164 -7 -9 -10 -22 -7 -30 3 -7 1 -18 -5
-24 -8 -8 -6 -16 6 -27 15 -15 33 -16 151 -10 l135 7 0 -96 c0 -57 -4 -96 -10
-96 -5 0 -10 -7 -10 -16 0 -15 -15 -16 -127 -13 l-128 4 2 -35 c0 -19 4 -97 9
-172 6 -116 5 -138 -7 -138 -17 0 -19 -60 -2 -77 9 -10 84 -12 318 -10 l306 2
-3 39 -3 38 -147 -1 c-141 -2 -148 -1 -148 18 0 12 -8 21 -22 24 l-23 4 23 2
c12 0 22 6 22 11 0 6 43 10 110 10 103 0 110 1 110 20 0 12 7 20 18 21 9 0 26
2 37 4 34 7 459 34 720 47 331 16 1712 16 2125 0 1206 -48 2215 -126 3460
-268 1040 -118 2250 -264 2905 -348 190 -25 1004 -106 1062 -106 28 0 31 3 36
42 3 24 5 44 3 45 -1 2 -191 21 -422 43 -474 46 -472 45 -1174 134 -1593 201
-3133 372 -3970 441 -1767 144 -3567 170 -4727 69 -70 -6 -73 -6 -73 15 0 20
-4 21 -110 21 -86 0 -110 3 -110 14 0 10 26 15 104 20 136 9 174 3 179 -33 l4
-26 2 28 c1 33 14 34 128 12 131 -25 184 -18 62 9 l-64 14 67 1 c44 1 68 -3
71 -11 3 -7 6 44 6 113 l1 126 83 7 c330 25 565 31 1317 31 827 0 1026 -5
1715 -46 592 -34 1105 -77 1750 -145 529 -55 2343 -284 3240 -409 215 -30 473
-63 575 -74 326 -36 673 -71 675 -69 2 2 6 22 10 45 8 51 28 45 -250 73 -402
40 -662 71 -1010 120 -670 94 -2409 316 -2965 379 -1783 202 -3523 274 -4880
201 -102 -6 -202 -12 -223 -15 l-39 -6 6 48 c3 27 2 64 -2 84 l-7 36 -115 -22
c-63 -12 -141 -25 -172 -29 l-58 -6 0 39 c0 48 -13 44 230 66 451 40 854 55
1470 55 926 0 1814 -49 2825 -156 516 -54 2002 -243 2855 -363 369 -52 1057
-131 1140 -131 25 0 28 4 34 41 4 23 5 43 4 44 -2 1 -165 19 -363 39 -198 21
-551 64 -785 97 -708 99 -2268 300 -2710 348 -1634 180 -3181 224 -4390 126
-102 -8 -198 -17 -213 -20 -27 -5 -28 -3 -22 26 4 17 4 51 0 75 -7 51 -4 50
-125 22z m110 -7 c0 -16 -11 -19 -95 -25 l-80 -5 70 19 c81 21 105 24 105 11z
m0 -51 c0 -6 -56 -10 -145 -11 -80 -1 -148 -2 -152 -3 -9 -3 -111 -13 -207
-22 -58 -5 -64 -4 -69 15 -5 20 -1 21 241 24 136 1 266 3 290 5 23 1 42 -2 42
-8z m-3 -45 c3 -9 4 -18 2 -20 -3 -2 -66 -6 -142 -9 l-137 -5 0 24 0 25 135 0
c113 0 137 -3 142 -15z m-447 -91 l0 -57 -51 6 c-29 4 -53 8 -54 9 -1 2 -6 24
-9 51 l-7 47 60 0 61 0 0 -56z m320 9 c0 -37 13 -55 33 -47 14 5 17 0 17 -25
l0 -31 -82 -1 c-46 -1 -122 -2 -170 -3 -99 -1 -98 -2 -98 80 l0 54 150 0 150
0 0 -27z m400 -103 c0 -14 -14 -18 -95 -23 l-70 -5 70 18 c84 22 95 23 95 10z
m-270 -60 c0 -19 7 -20 135 -20 l135 0 0 -24 c0 -21 -6 -24 -52 -30 -29 -3
-88 -6 -130 -6 -74 0 -78 1 -79 23 l-2 22 -4 -22 c-4 -19 -11 -23 -46 -24 -23
0 -51 -4 -62 -9 -15 -7 -9 -9 28 -11 26 -1 52 -3 57 -4 6 -1 19 -3 30 -4 16
-1 20 -8 20 -37 l0 -36 60 4 60 3 0 -32 0 -33 -80 0 -80 0 0 36 c0 32 -2 35
-16 23 -9 -7 -20 -23 -25 -36 -8 -21 -15 -23 -73 -23 l-65 0 -3 67 c-2 44 -7
68 -16 71 -10 3 -13 -5 -11 -32 2 -19 0 -36 -4 -36 -70 -2 -67 -4 -67 54 l0
54 140 -5 140 -6 0 28 0 28 -126 -6 c-70 -3 -132 -11 -137 -16 -18 -18 -27
-12 -27 19 l0 29 143 4 c78 1 145 4 150 5 4 1 7 -7 7 -18z m270 10 c0 -6 -50
-9 -132 -8 -123 2 -127 2 -53 8 133 11 185 11 185 0z m-761 -14 c-12 -10 -79
-16 -79 -6 0 5 19 10 42 10 23 0 39 -2 37 -4z m158 -72 c-3 -3 -12 -4 -19 -1
-8 3 -5 6 6 6 11 1 17 -2 13 -5z m603 -170 l0 -75 -132 2 c-133 1 -133 1 -136
-22 -3 -24 -3 -24 -152 -27 -118 -1 -150 1 -150 11 0 14 153 37 243 37 40 0
47 3 47 20 0 15 -7 20 -32 22 -18 1 23 5 92 8 l125 5 3 47 c3 46 4 47 40 50
20 2 40 2 45 0 4 -2 7 -37 7 -78z m-492 -39 c-2 -1 -18 -5 -35 -8 -23 -5 -33
-3 -33 6 0 9 11 12 36 9 19 -2 34 -5 32 -7z m492 -71 c0 -15 -9 -16 -67 -11
-38 4 -92 7 -120 7 -29 0 -53 5 -53 10 0 6 47 10 120 10 105 0 120 -2 120 -16z
m-625 -14 c-17 -19 -29 -20 -114 -18 -82 3 -96 6 -99 21 -3 15 8 17 114 17
l117 0 -18 -20z m-95 -99 c0 -22 3 -47 7 -57 5 -15 0 -16 -46 -12 -28 3 -53 7
-55 9 -2 2 -7 25 -11 52 l-7 47 56 0 56 0 0 -39z m373 -43 c3 -34 3 -66 1 -70
-3 -4 -81 -8 -175 -8 l-169 0 0 70 0 70 169 0 168 0 6 -62z m-428 -138 c-3 -5
-17 -10 -31 -10 -13 0 -24 5 -24 10 0 6 14 10 31 10 17 0 28 -4 24 -10z m505
-67 c0 -14 -13 -15 -122 -10 -66 4 -146 8 -177 9 -65 2 79 13 217 16 70 2 82
0 82 -15z"/>
</g>
</svg>
