<?xml version="1.0" encoding="UTF-8"?>
<!DOCTYPE svg PUBLIC "-//W3C//DTD SVG 1.1//EN" "http://www.w3.org/Graphics/SVG/1.1/DTD/svg11.dtd">
<!-- Creator: CorelDRAW 2019 (64-Bit) -->
<svg xmlns="http://www.w3.org/2000/svg" xml:space="preserve" width="100%" height="100%" version="1.1" style="shape-rendering:geometricPrecision; text-rendering:geometricPrecision; image-rendering:optimizeQuality; fill-rule:evenodd; clip-rule:evenodd"
viewBox="0 0 21000 29700"
 xmlns:xlink="http://www.w3.org/1999/xlink">
 <defs>
  <style type="text/css">
   <![CDATA[
    .str2 {stroke:#FEFEFE;stroke-width:100;stroke-miterlimit:22.9256}
    .str0 {stroke:#FEFEFE;stroke-width:50;stroke-miterlimit:22.9256}
    .str6 {stroke:#D9DADA;stroke-width:20;stroke-miterlimit:22.9256}
    .str3 {stroke:#EBECEC;stroke-width:7.62;stroke-miterlimit:22.9256}
    .str5 {stroke:#B2B3B3;stroke-width:7.62;stroke-miterlimit:22.9256}
    .str4 {stroke:#9D9E9E;stroke-width:7.62;stroke-miterlimit:22.9256}
    .str1 {stroke:#FFED00;stroke-width:7.62;stroke-miterlimit:22.9256}
    .fil31 {fill:none}
    .fil1 {fill:#FEFEFE}
    .fil32 {fill:#EBECEC}
    .fil13 {fill:#D9DADA}
    .fil7 {fill:#F7AA47}
    .fil6 {fill:#F59F3B}
    .fil5 {fill:#F39430}
    .fil4 {fill:#F18A25}
    .fil18 {fill:#A75F4A}
    .fil19 {fill:#B9674B}
    .fil20 {fill:#CC704A}
    .fil21 {fill:#DD7948}
    .fil22 {fill:#F08143}
    .fil3 {fill:#EF7F1A}
    .fil17 {fill:#A2D9F7}
    .fil12 {fill:#A8D4AF}
    .fil11 {fill:#81C391}
    .fil16 {fill:#75C5EF}
    .fil10 {fill:#4BB272}
    .fil15 {fill:#32B0E5}
    .fil9 {fill:#03A359}
    .fil14 {fill:#009DDC}
    .fil8 {fill:#009846}
    .fil2 {fill:#008DD2}
    .fil33 {fill:#008DD2}
    .fil0 {fill:#008DD2;fill-rule:nonzero}
    .fil42 {fill:url(#id42)}
    .fil51 {fill:url(#id43)}
    .fil39 {fill:url(#id44)}
    .fil24 {fill:url(#id45)}
    .fil55 {fill:url(#id46)}
    .fil53 {fill:url(#id47)}
    .fil48 {fill:url(#id48)}
    .fil28 {fill:url(#id49)}
    .fil52 {fill:url(#id50)}
    .fil44 {fill:url(#id51)}
    .fil37 {fill:url(#id52)}
    .fil50 {fill:url(#id53)}
    .fil36 {fill:url(#id54)}
    .fil29 {fill:url(#id55)}
    .fil49 {fill:url(#id56)}
    .fil25 {fill:url(#id57)}
    .fil45 {fill:url(#id58)}
    .fil54 {fill:url(#id59)}
    .fil35 {fill:url(#id60)}
    .fil38 {fill:url(#id61)}
    .fil27 {fill:url(#id62)}
    .fil41 {fill:url(#id63)}
    .fil47 {fill:url(#id64)}
    .fil23 {fill:url(#id65)}
    .fil34 {fill:url(#id66)}
    .fil43 {fill:url(#id67)}
    .fil30 {fill:url(#id68)}
    .fil26 {fill:url(#id69)}
    .fil40 {fill:url(#id70)}
    .fil46 {fill:url(#id71)}
   ]]>
  </style>
     <clipPath id="id0">
      <path d="M17044.4 2399.98l1147.11 -95.39 59.01 723.73 -1147.11 95.42 -59.01 -723.76z"/>
     </clipPath>
     <clipPath id="id1">
      <path d="M17805.8 2454.08l507.54 -10.89 0 453.46 -507.54 10.89 0 -453.46z"/>
     </clipPath>
    <mask id="id2">
  <linearGradient id="id3" gradientUnits="userSpaceOnUse" x1="18494.53" y1="2643.71" x2="17854.29" y2="2696.96">
   <stop offset="0" style="stop-opacity:1; stop-color:white"/>
   <stop offset="1" style="stop-opacity:0.2; stop-color:white"/>
  </linearGradient>
     <rect style="fill:url(#id3)" x="17836.12" y="2483.32" width="440.21" height="393.7"/>
    </mask>
     <clipPath id="id4">
      <path d="M17308.91 2580.21l765.52 -25.59 0 269.21 -765.52 25.59 0 -269.21z"/>
     </clipPath>
    <mask id="id5">
  <linearGradient id="id6" gradientUnits="userSpaceOnUse" x1="17298.43" y1="2744.77" x2="18015.84" y2="2685.1">
   <stop offset="0" style="stop-opacity:1; stop-color:white"/>
   <stop offset="1" style="stop-opacity:0.0980392; stop-color:white"/>
  </linearGradient>
     <rect style="fill:url(#id6)" x="17329.18" y="2597.4" width="636.93" height="233.49"/>
    </mask>
     <clipPath id="id7">
      <path d="M16552.51 3110.97l1147.11 -95.39 59.01 723.73 -1147.11 95.42 -59.01 -723.76z"/>
     </clipPath>
     <clipPath id="id8">
      <path d="M17313.91 3165.07l507.54 -10.89 0 453.46 -507.54 10.89 0 -453.46z"/>
     </clipPath>
    <mask id="id9">
  <linearGradient id="id10" gradientUnits="userSpaceOnUse" x1="18002.64" y1="3354.7" x2="17362.4" y2="3407.95">
   <stop offset="0" style="stop-opacity:1; stop-color:white"/>
   <stop offset="1" style="stop-opacity:0.2; stop-color:white"/>
  </linearGradient>
     <rect style="fill:url(#id10)" x="17344.23" y="3194.31" width="440.21" height="393.7"/>
    </mask>
     <clipPath id="id11">
      <path d="M16817.02 3291.2l765.52 -25.59 0 269.21 -765.52 25.59 0 -269.21z"/>
     </clipPath>
    <mask id="id12">
  <linearGradient id="id13" gradientUnits="userSpaceOnUse" x1="16806.54" y1="3455.76" x2="17523.95" y2="3396.09">
   <stop offset="0" style="stop-opacity:1; stop-color:white"/>
   <stop offset="1" style="stop-opacity:0.0980392; stop-color:white"/>
  </linearGradient>
     <rect style="fill:url(#id13)" x="16837.29" y="3308.39" width="636.93" height="233.49"/>
    </mask>
     <clipPath id="id14">
      <path d="M17283.29 3787.6l1147.11 -95.39 59.01 723.73 -1147.11 95.42 -59.01 -723.76z"/>
     </clipPath>
     <clipPath id="id15">
      <path d="M18044.69 3841.7l507.54 -10.89 0 453.46 -507.54 10.89 0 -453.46z"/>
     </clipPath>
    <mask id="id16">
  <linearGradient id="id17" gradientUnits="userSpaceOnUse" x1="18733.42" y1="4031.33" x2="18093.18" y2="4084.58">
   <stop offset="0" style="stop-opacity:1; stop-color:white"/>
   <stop offset="1" style="stop-opacity:0.2; stop-color:white"/>
  </linearGradient>
     <rect style="fill:url(#id17)" x="18075.01" y="3870.94" width="440.21" height="393.7"/>
    </mask>
     <clipPath id="id18">
      <path d="M17547.8 3967.83l765.52 -25.59 0 269.21 -765.52 25.59 0 -269.21z"/>
     </clipPath>
    <mask id="id19">
  <linearGradient id="id20" gradientUnits="userSpaceOnUse" x1="17537.32" y1="4132.39" x2="18254.73" y2="4072.72">
   <stop offset="0" style="stop-opacity:1; stop-color:white"/>
   <stop offset="1" style="stop-opacity:0.0980392; stop-color:white"/>
  </linearGradient>
     <rect style="fill:url(#id20)" x="17568.07" y="3985.02" width="636.93" height="233.49"/>
    </mask>
     <clipPath id="id21">
      <path d="M3611.82 11105.36l-1147.11 95.39 -59.01 -723.73 1147.11 -95.42 59.01 723.76z"/>
     </clipPath>
     <clipPath id="id22">
      <path d="M2349.57 10599.08l507.54 -10.89 0 453.46 -507.54 10.89 0 -453.46z"/>
     </clipPath>
    <mask id="id23">
  <linearGradient id="id24" gradientUnits="userSpaceOnUse" x1="2161.69" y1="10861.63" x2="2801.93" y2="10808.38">
   <stop offset="0" style="stop-opacity:1; stop-color:white"/>
   <stop offset="1" style="stop-opacity:0.2; stop-color:white"/>
  </linearGradient>
     <rect style="fill:url(#id24)" x="2379.89" y="10628.32" width="440.21" height="393.7"/>
    </mask>
     <clipPath id="id25">
      <path d="M2669.84 10657.26l765.52 -25.59 0 269.21 -765.52 25.59 0 -269.21z"/>
     </clipPath>
    <mask id="id26">
  <linearGradient id="id27" gradientUnits="userSpaceOnUse" x1="3357.79" y1="10760.57" x2="2640.38" y2="10820.24">
   <stop offset="0" style="stop-opacity:1; stop-color:white"/>
   <stop offset="1" style="stop-opacity:0.0980392; stop-color:white"/>
  </linearGradient>
     <rect style="fill:url(#id27)" x="2690.11" y="10674.45" width="636.93" height="233.49"/>
    </mask>
     <clipPath id="id28">
      <path d="M4103.71 10394.37l-1147.11 95.39 -59.01 -723.73 1147.11 -95.42 59.01 723.76z"/>
     </clipPath>
     <clipPath id="id29">
      <path d="M2841.46 9888.09l507.54 -10.89 0 453.46 -507.54 10.89 0 -453.46z"/>
     </clipPath>
    <mask id="id30">
  <linearGradient id="id31" gradientUnits="userSpaceOnUse" x1="2653.58" y1="10150.64" x2="3293.82" y2="10097.39">
   <stop offset="0" style="stop-opacity:1; stop-color:white"/>
   <stop offset="1" style="stop-opacity:0.2; stop-color:white"/>
  </linearGradient>
     <rect style="fill:url(#id31)" x="2871.78" y="9917.33" width="440.21" height="393.7"/>
    </mask>
     <clipPath id="id32">
      <path d="M3161.73 9946.27l765.52 -25.59 0 269.21 -765.52 25.59 0 -269.21z"/>
     </clipPath>
    <mask id="id33">
  <linearGradient id="id34" gradientUnits="userSpaceOnUse" x1="3849.68" y1="10049.58" x2="3132.27" y2="10109.25">
   <stop offset="0" style="stop-opacity:1; stop-color:white"/>
   <stop offset="1" style="stop-opacity:0.0980392; stop-color:white"/>
  </linearGradient>
     <rect style="fill:url(#id34)" x="3182" y="9963.46" width="636.93" height="233.49"/>
    </mask>
     <clipPath id="id35">
      <path d="M3372.93 9717.74l-1147.11 95.39 -59.01 -723.73 1147.11 -95.42 59.01 723.76z"/>
     </clipPath>
     <clipPath id="id36">
      <path d="M2110.68 9211.46l507.54 -10.89 0 453.46 -507.54 10.89 0 -453.46z"/>
     </clipPath>
    <mask id="id37">
  <linearGradient id="id38" gradientUnits="userSpaceOnUse" x1="1922.8" y1="9474.01" x2="2563.04" y2="9420.76">
   <stop offset="0" style="stop-opacity:1; stop-color:white"/>
   <stop offset="1" style="stop-opacity:0.2; stop-color:white"/>
  </linearGradient>
     <rect style="fill:url(#id38)" x="2141" y="9240.7" width="440.21" height="393.7"/>
    </mask>
     <clipPath id="id39">
      <path d="M2430.95 9269.64l765.52 -25.59 0 269.21 -765.52 25.59 0 -269.21z"/>
     </clipPath>
    <mask id="id40">
  <linearGradient id="id41" gradientUnits="userSpaceOnUse" x1="3118.9" y1="9372.95" x2="2401.49" y2="9432.62">
   <stop offset="0" style="stop-opacity:1; stop-color:white"/>
   <stop offset="1" style="stop-opacity:0.0980392; stop-color:white"/>
  </linearGradient>
     <rect style="fill:url(#id41)" x="2451.22" y="9286.83" width="636.93" height="233.49"/>
    </mask>
  <linearGradient id="id42" gradientUnits="userSpaceOnUse" x1="18280.89" y1="4099.28" x2="18269.11" y2="3954.84">
   <stop offset="0" style="stop-opacity:1; stop-color:#727271"/>
   <stop offset="0.501961" style="stop-opacity:1; stop-color:white"/>
   <stop offset="1" style="stop-opacity:1; stop-color:#727271"/>
  </linearGradient>
  <linearGradient id="id43" gradientUnits="userSpaceOnUse" xlink:href="#id42" x1="3058.68" y1="9748.53" x2="3046.9" y2="9893">
  </linearGradient>
  <linearGradient id="id44" gradientUnits="userSpaceOnUse" xlink:href="#id42" x1="18340.1" y1="4433.41" x2="18328.32" y2="4288.95">
  </linearGradient>
  <linearGradient id="id45" gradientUnits="objectBoundingBox" xlink:href="#id42" x1="54.1761%" y1="147.945%" x2="45.8239%" y2="0%">
  </linearGradient>
  <linearGradient id="id46" gradientUnits="userSpaceOnUse" xlink:href="#id42" x1="2387.11" y1="9406.06" x2="2375.33" y2="9550.5">
  </linearGradient>
  <linearGradient id="id47" gradientUnits="userSpaceOnUse" xlink:href="#id42" x1="2327.9" y1="9071.9" x2="2316.12" y2="9216.37">
  </linearGradient>
  <linearGradient id="id48" gradientUnits="userSpaceOnUse" xlink:href="#id42" x1="2626" y1="10793.68" x2="2614.22" y2="10938.12">
  </linearGradient>
  <linearGradient id="id49" gradientUnits="objectBoundingBox" xlink:href="#id42" x1="54.1761%" y1="147.939%" x2="45.8239%" y2="0%">
  </linearGradient>
  <linearGradient id="id50" gradientUnits="userSpaceOnUse" xlink:href="#id42" x1="3117.89" y1="10082.69" x2="3106.11" y2="10227.13">
  </linearGradient>
  <linearGradient id="id51" gradientUnits="userSpaceOnUse" xlink:href="#id42" x1="2566.79" y1="10459.52" x2="2555.01" y2="10603.99">
  </linearGradient>
  <linearGradient id="id52" gradientUnits="objectBoundingBox" xlink:href="#id42" x1="54.1806%" y1="147.939%" x2="45.8336%" y2="0%">
  </linearGradient>
  <linearGradient id="id53" gradientUnits="objectBoundingBox" xlink:href="#id42" x1="45.8194%" y1="0%" x2="54.1664%" y2="147.939%">
  </linearGradient>
  <linearGradient id="id54" gradientUnits="userSpaceOnUse" xlink:href="#id42" x1="17127.08" y1="3288.28" x2="17115.31" y2="3143.84">
  </linearGradient>
  <linearGradient id="id55" gradientUnits="objectBoundingBox" xlink:href="#id42" x1="54.1903%" y1="147.939%" x2="45.8452%" y2="0%">
  </linearGradient>
  <linearGradient id="id56" gradientUnits="objectBoundingBox" xlink:href="#id42" x1="45.8097%" y1="0%" x2="54.1548%" y2="147.939%">
  </linearGradient>
  <linearGradient id="id57" gradientUnits="objectBoundingBox" xlink:href="#id42" x1="54.1903%" y1="147.959%" x2="45.8452%" y2="0%">
  </linearGradient>
  <linearGradient id="id58" gradientUnits="objectBoundingBox" xlink:href="#id42" x1="45.8097%" y1="0%" x2="54.1548%" y2="147.959%">
  </linearGradient>
  <linearGradient id="id59" gradientUnits="userSpaceOnUse" xlink:href="#id42" x1="2784.77" y1="9203.48" x2="2772.99" y2="9347.93">
  </linearGradient>
  <linearGradient id="id60" gradientUnits="userSpaceOnUse" xlink:href="#id42" x1="17199.72" y1="3451.79" x2="17187.94" y2="3307.35">
  </linearGradient>
  <linearGradient id="id61" gradientUnits="userSpaceOnUse" xlink:href="#id42" x1="17989.71" y1="4462.55" x2="17977.93" y2="4318.11">
  </linearGradient>
  <linearGradient id="id62" gradientUnits="userSpaceOnUse" xlink:href="#id42" x1="17691.61" y1="2740.8" x2="17679.83" y2="2596.36">
  </linearGradient>
  <linearGradient id="id63" gradientUnits="userSpaceOnUse" xlink:href="#id42" x1="17930.5" y1="4128.42" x2="17918.72" y2="3983.98">
  </linearGradient>
  <linearGradient id="id64" gradientUnits="objectBoundingBox" xlink:href="#id42" x1="45.8026%" y1="0%" x2="54.1548%" y2="147.999%">
  </linearGradient>
  <linearGradient id="id65" gradientUnits="userSpaceOnUse" xlink:href="#id42" x1="17750.82" y1="3074.93" x2="17739.04" y2="2930.49">
  </linearGradient>
  <linearGradient id="id66" gradientUnits="userSpaceOnUse" xlink:href="#id42" x1="17258.93" y1="3785.92" x2="17247.15" y2="3641.48">
  </linearGradient>
  <linearGradient id="id67" gradientUnits="objectBoundingBox" xlink:href="#id42" x1="45.8026%" y1="0%" x2="54.1548%" y2="147.939%">
  </linearGradient>
  <linearGradient id="id68" gradientUnits="userSpaceOnUse" xlink:href="#id42" x1="17969.36" y1="2548.15" x2="17957.59" y2="2403.71">
  </linearGradient>
  <linearGradient id="id69" gradientUnits="objectBoundingBox" xlink:href="#id42" x1="54.1876%" y1="147.939%" x2="45.8336%" y2="0%">
  </linearGradient>
  <linearGradient id="id70" gradientUnits="userSpaceOnUse" xlink:href="#id42" x1="18233.68" y1="4272.72" x2="18221.9" y2="4128.22">
  </linearGradient>
  <linearGradient id="id71" gradientUnits="objectBoundingBox" xlink:href="#id42" x1="45.8124%" y1="0%" x2="54.1664%" y2="148.02%">
  </linearGradient>
 </defs>
 <g id="Слой_x0020_1">
  <metadata id="CorelCorpID_0Corel-Layer"/>
  <g id="_1763524462832">
   <path class="fil0 str0" d="M15938.37 8160.74l0 -2322.37 -575.35 0 0 -473.18 1541.41 0.02 0 473.19 -574.02 -0.03 0 2322.37 -392.04 0zm-2243.66 0l0 -2795.55 1437.99 0 0 473.18 -1046.41 0.03 0 619.64 973.69 0 0 470.57 -973.69 0 0 760.9 1083.46 0 0 471.23 -1475.04 0zm-1953.31 0l0 -2795.55 381.17 0 793.98 1866.71 0 -1866.71 364.01 0 0 2795.55 -393.37 0.03 -781.76 -1823.17 0 1823.14 -364.03 0zm-1431.67 -1185.94c-2.7,-155.53 -30.24,-273.33 -83.07,-354.05 -52.86,-80.72 -117.43,-121.06 -193.33,-121.06 -81.28,0 -148.13,42.95 -200.96,128.21 -52.85,84.63 -79.04,200.47 -78.13,346.9l555.49 0zm-21.22 541.56l370.79 89.17c-47.87,195.91 -122.82,344.97 -225.81,447.17 -102.51,102.85 -231.23,153.63 -385.69,153.63 -244.31,0 -424.98,-114.56 -542.41,-345 -92.58,-184.19 -139.08,-417.2 -139.08,-697.74 0,-335.87 60.94,-598.82 182.89,-788.88 121.48,-190.06 275.49,-285.08 461.58,-285.08 209.1,0 373.94,99.58 494.97,298.75 120.58,199.17 178.4,503.8 173.44,914.51l-931.73 0c2.72,158.83 32.54,282.47 89.91,370.37 57.34,88.49 129.15,132.75 214.52,132.75 58.24,0 107.02,-22.76 146.74,-68.35 39.74,-46.22 70.02,-119.76 89.88,-221.3zm-3250.84 -1380.54l342.79 0 0 276c122.4,-214.8 268.74,-322.19 438.09,-322.19 89.88,0 168.02,26.67 233.95,80.04 66.39,53.39 120.61,134.11 163.03,242.15 61.42,-108.04 128.26,-188.76 199.62,-242.15 71.38,-53.37 147.67,-80.04 228.99,-80.04 102.99,0 190.57,30.58 261.95,91.1 71.33,59.89 124.64,149.07 159.88,265.56 25.73,86.59 38.39,226.55 38.39,419.85l0 1294.6 -371.7 0 0 -1157.26c0,-201.15 -12.66,-330.64 -38.39,-389.23 -34.33,-76.18 -87.16,-114.56 -158.51,-114.56 -52.41,0 -101.18,22.78 -147.25,68.97 -45.62,45.59 -78.56,112.61 -98.91,201.15 -20.31,88.5 -30.69,227.8 -30.69,418.52l0 972.41 -371.7 0 0 -1109.76c0,-197.24 -6.81,-324.12 -19.86,-381.4 -13.11,-57.29 -33.88,-99.62 -61.46,-127.59 -27.97,-27.98 -65.48,-42.3 -113.34,-42.3 -57.37,0 -108.84,22.13 -154.46,67.04 -46.07,44.26 -79.01,108.69 -98.9,192.64 -19.86,83.98 -29.82,222.61 -29.82,417.21l0 984.16 -371.7 0 0 -2024.92zm-1332.28 1012.13c0,201.16 32.94,354.73 99.33,461.47 65.94,106.79 147.68,160.13 244.76,160.13 97.12,0 178.43,-53.34 243.92,-160.13 65.93,-106.74 98.9,-261.64 98.9,-465.35 0,-197.9 -32.97,-350.85 -98.9,-457.58 -65.49,-106.77 -146.8,-160.11 -243.92,-160.11 -97.08,0 -178.82,53.34 -244.76,160.11 -66.39,106.73 -99.33,260.99 -99.33,461.46zm-381.2 -28.62c0,-177.7 30.73,-350.2 91.21,-516.82 60.97,-165.98 147.25,-293.54 258.81,-380.75 111.56,-87.87 236.2,-132.13 373.94,-132.13 212.28,0 386.59,99.58 522.52,298.75 135.96,199.17 203.71,450.41 203.71,754.38 0,305.91 -68.63,559.78 -205.49,761.56 -137.3,201.78 -309.82,302.01 -518.02,302.01 -129.17,0 -251.57,-41.7 -368.52,-125.63 -116.97,-83.98 -205.98,-206.97 -266.95,-369.06 -60.48,-162.08 -91.21,-359.3 -91.21,-592.31zm-1867.03 1041.41l0 -2795.55 392.01 0 0 1100 767.31 0 0 -1100 391.56 0 0 2795.55 -391.56 0 0 -1222.34 -767.31 0 0 1222.34 -392.01 0z"/>
   <circle class="fil1 str1" cx="2134.03" cy="2098.9" r="240.27"/>
   <path class="fil2 str2" d="M2304.76 1949.8c818.07,83.8 1636.13,167.28 2454.34,249.26 1140.48,114.23 2280.83,223.57 3423.32,312.89 1273.23,99.56 2553.09,181.49 3828.96,224.69 942.8,31.93 1882.86,36.42 2825.17,-1.07 749.04,-29.81 1495.01,-85.85 2242.21,-143.92l162.66 -12.66 25.99 339.69 -162.63 12.63c-751.16,58.4 -1501.02,114.64 -2254,144.61 -950,37.82 -1897.72,33.36 -2848.18,1.19 -1280.5,-43.38 -2564.96,-125.56 -3842.8,-225.49 -1144.75,-89.49 -2287.36,-199.04 -3430.14,-313.51 -818.42,-81.98 -1636.73,-165.49 -2454.99,-249.31l-162.47 -16.66c-87.09,-8.46 -157.4,-60.08 -143.04,-190.66 14.36,-130.58 105.09,-153.61 173.15,-148.31l162.45 16.63z"/>
   <circle class="fil1 str1" cx="4859.9" cy="3435.32" r="240.27"/>
   <path class="fil2 str2" d="M4961.86 3277.35c686.28,87.05 1372.56,173.8 2058.95,259.03 956.75,118.77 1913.36,232.65 2871.67,326.53 1067.98,104.63 2141.44,191.65 3211.38,239.95 790.64,35.69 1578.84,43.93 2368.74,10.21 627.9,-26.82 1253.1,-79.87 1879.32,-134.96l136.33 -12 23.32 339.75 -136.3 11.98c-629.54,55.4 -1258,108.64 -1889.2,135.6 -796.35,34.02 -1590.98,25.77 -2388.03,-10.19 -1073.82,-48.48 -2151.15,-135.79 -3222.99,-240.8 -960.21,-94.06 -1918.72,-208.15 -2877.39,-327.18 -686.57,-85.23 -1373.05,-172 -2059.5,-259.08l-136.3 -17.3c-84.28,-15.67 -125.57,-101.28 -114.11,-184.03 11.46,-82.75 66.25,-160.74 137.84,-154.79l136.27 17.28z"/>
   <circle class="fil1 str1" cx="3559.71" cy="2761.04" r="240.27"/>
   <path class="fil2 str2" d="M3695.1 2610.41c715.72,86.33 1431.44,172.35 2147.28,256.86 997.79,117.75 1995.46,230.61 2994.91,323.47 1113.84,103.5 2233.41,189.39 3349.36,236.55 824.63,34.85 1646.75,42.25 2470.71,7.68 654.96,-27.48 1307.14,-81.2 1960.39,-136.96l142.21 -12.14 23.92 339.74 -142.19 12.12c-656.71,56.07 -1312.29,109.98 -1970.69,137.61 -830.68,34.87 -1659.52,27.47 -2490.84,-7.65 -1119.99,-47.34 -2243.59,-133.5 -3361.46,-237.38 -1001.43,-93.03 -2001.08,-206.11 -3000.88,-324.12 -716.03,-84.5 -1431.96,-170.54 -2147.85,-256.9l-142.15 -17.16c-93.42,-14.3 -144.85,-96.17 -132.13,-196.81 12.73,-100.64 85.45,-144.75 157.28,-142.04l142.13 17.13z"/>
   <path class="fil3" d="M17273.37 2857.17l189.73 122.44c6.27,4.03 9.79,5.96 14.57,9.38 4.78,3.42 11.77,2.16 18.57,1.59l711.45 -59.17 5.32 65.19 -699.35 58.17c-10.83,0.9 -22.39,0.66 -31.49,-4.88 -9.1,-5.54 -14.01,-8.49 -23.22,-14.05l-179.89 -108.93 -5.69 -69.74z"/>
   <g>
    <path class="fil4" d="M17281.75 2871.17l4.2 51.49 176.75 107.02c7.72,4.68 15.49,9.33 23.21,14.04 7.75,4.71 18.38,4.6 27.15,3.86l692.16 -57.56 -4.14 -50.85 -704.25 58.59c-7.97,0.68 -16.34,2.13 -23.38,-2.89 -4.59,-3.29 -9.5,-6.16 -14.27,-9.22l-177.43 -114.48z"/>
    <path class="fil5" d="M17290.12 2885.13l2.69 33.28 173.61 105.08c7.74,4.71 15.52,9.37 23.23,14.08 6.16,3.74 15.84,3.4 22.82,2.83l685 -56.97 -2.98 -36.48 -697.06 57.99c-10.07,0.85 -19.27,2.16 -28.17,-4.23 -4.49,-3.2 -9.34,-6.01 -13.96,-8.99l-165.18 -106.59z"/>
    <path class="fil6" d="M17298.49 2899.11l1.22 15.04 170.45 103.19c7.75,4.71 15.52,9.36 23.24,14.07 4.45,2.7 13.39,2.21 18.47,1.82l677.83 -56.38 -1.82 -22.1 -689.86 57.37c-20.17,1.7 -12.45,9.1 -32.94,-5.53 -4.39,-3.15 -9.16,-5.88 -13.7,-8.83l-152.89 -98.65z"/>
    <path class="fil7" d="M17488.41 3019.98c2.92,1.76 5.84,3.51 8.74,5.27 2.49,1.54 11.15,1.03 14.12,0.77l670.66 -55.75 -0.63 -7.75 -682.68 56.8c-3.55,0.29 -6.92,0.54 -10.21,0.66z"/>
   </g>
   <path class="fil3" d="M17269.38 2808.24l3.99 48.93c6.74,3.99 80.45,51.88 129.89,83.8 29.63,19.13 46.25,22.87 49.92,25.08 15.59,5.48 27.07,6.72 41.4,5.53l711.56 -59.18 -5.32 -65.2c-238.9,19.87 -477.77,39.74 -716.68,59.61 -5.06,0.42 -11.13,-0.01 -15.54,-0.87 -4.4,-0.86 -6.38,-2.01 -9.74,-4.09l-189.48 -93.61z"/>
   <g>
    <path class="fil4" d="M17277.6 2820.32l2.64 32.58c42.36,25.22 85.4,55.18 126.94,82.02 17.99,11.6 34.5,15.91 48.71,24.48 13.51,4.74 23.92,6.16 38.11,5l704.35 -58.59 -4.14 -50.84c-236.48,19.69 -472.98,39.26 -709.46,59.01 -5.59,0.48 -12.06,0.11 -17.54,-0.96 -4.99,-0.97 -7.26,-2.62 -11.52,-4.71l-178.09 -87.99z"/>
    <path class="fil5" d="M17285.8 2832.44l1.34 16.17c41.39,24.85 83.38,54.05 123.95,80.24 17.42,11.26 33.57,15.66 48.12,24.03 11.97,4.08 21.45,5.39 34.19,4.34l697.21 -57.99 -2.98 -36.49c-234.1,19.49 -468.19,38.9 -702.29,58.42 -6.24,0.54 -13.39,0.14 -19.52,-1.08 -5.79,-1.14 -8.42,-2.89 -13.33,-5.33l-166.69 -82.31z"/>
    <path class="fil6" d="M17295.65 2845.32c39.92,24.29 80.29,52.26 119.33,77.48 17.11,11.04 32.8,15.35 47.21,23.47 10.7,3.57 19.1,4.71 30.61,3.77l690.03 -57.4 -1.81 -22.1c-231.69,19.27 -463.37,38.47 -695.08,57.8 -6.9,0.59 -14.73,0.17 -21.51,-1.17 -6.49,-1.27 -9.62,-3.23 -15.12,-5.96l-153.66 -75.89z"/>
    <path class="fil7" d="M17403.04 2906.4c5.3,3.49 10.61,6.96 15.86,10.36 16.74,10.78 31.97,15.01 46.18,22.9 9.48,3.09 16.8,4.05 27.13,3.17l682.85 -56.77 -0.62 -7.74c-229.3,19.06 -458.61,38.07 -687.88,57.19 -18.01,1.51 -7.83,1.82 -23.52,-1.27 -7.18,-1.42 -10.81,-3.55 -16.94,-6.56l-43.06 -21.28z"/>
   </g>
   <path class="fil8" d="M17462.1 2823.86l731.86 -60.86 5.31 65.19c-240.17,19.97 -480.38,39.95 -720.55,59.93 -3.77,0.31 -7.97,0.29 -11.52,-0.1 -3.55,-0.39 -6.23,-1.16 -9.46,-2.26l-188.36 -77.52 -5.12 -26.4 121.71 14.26 76.13 27.76z"/>
   <g>
    <path class="fil9" d="M17273.21 2790.14l2.49 12.91 184.79 76.03c2.5,1.05 4.79,1.48 7.49,1.79 3.32,0.37 6.84,0.34 10.16,0.06 237.78,-19.72 475.56,-39.55 713.35,-59.33l-4.15 -50.84 -726.23 60.43 -76.4 -28.03 -111.5 -13.02z"/>
    <path class="fil10" d="M17382.61 2810.22l-98.68 -11.57 179.28 73.77c7.89,3.23 -4.17,0.19 5.56,1.27 9.65,1.08 -1.78,0.94 8.77,0.06 235.4,-19.52 470.8,-39.15 706.2,-58.73l-2.98 -36.49 -720.61 59.98 -77.54 -28.29z"/>
    <path class="fil11" d="M17380.93 2817.26l-45.84 -5.36 130.87 53.85c1.2,0.51 2.33,0.65 3.61,0.79 2.38,0.26 4.99,0.23 7.37,0.03 233.02,-19.35 466.01,-38.76 699.03,-58.13l-1.82 -22.1 -714.99 59.46 -78.23 -28.54z"/>
    <path class="fil12" d="M17430.05 2842.85l40.34 16.51c8.54,0.97 -3.86,0.83 5.96,0 230.63,-19.12 461.24,-38.33 691.84,-57.51l-0.62 -7.74 -709.38 59.01 -28.14 -10.27z"/>
   </g>
   <polygon class="fil13" points="17603.28,2791.58 17739.24,2780.26 17734.13,2717.85 17598.21,2729.17 "/>
   <polygon class="fil13" points="17953.7,2762.45 18089.63,2751.13 18084.55,2688.71 17948.6,2700.03 "/>
   <g>
    <path class="fil2" d="M17261.36 2745.98l2.9 35.86 196.29 23.01 731.86 -60.87 -5.32 -65.19 -731.85 60.87 -193.88 6.32zm2.9 35.86l-2.9 -35.86 2.9 35.86z"/>
   </g>
   <g id="_1763551358192">
    <polygon class="fil14" points="17269.15,2752.94 17270.97,2775.36 17460.32,2797.68 18184.62,2737.39 18180.48,2686.55 17455.55,2746.87 "/>
    <polygon class="fil15" points="17276.95,2759.89 17277.66,2768.89 17460.8,2790.39 18176.88,2730.81 18173.9,2694.33 17455.89,2754.05 "/>
    <polygon class="fil16" points="17314.06,2765.91 17460.91,2783.13 18169.1,2724.23 18167.29,2702.13 17456.2,2761.25 "/>
    <polygon class="fil17" points="17410.47,2769.96 17461.03,2775.89 18161.33,2717.65 18160.7,2709.9 17456.55,2768.46 "/>
   </g>
   <path class="fil18" d="M17255.24 2634.82l167.34 -152.13c5.54,-5.02 8.69,-7.51 12.86,-11.67 4.16,-4.16 11.26,-4.07 18.06,-4.64l711.45 -59.17 -5.31 -65.19 -699.34 58.16c-10.84,0.91 -22.21,3.05 -30.29,10.01 -8.08,6.97 -12.44,10.7 -20.62,17.7l-159.83 137.18 5.68 69.75z"/>
   <g id="_1763551356816">
    <path class="fil19" d="M17261.23 2619.65l156.5 -142.31c4.2,-3.8 8.6,-7.43 12.63,-11.44 6.1,-6.1 14.58,-6.04 22.55,-6.69l704.28 -58.59 -4.15 -50.84 -692.15 57.59c-8.77,0.74 -19.3,2.36 -26.16,8.26 -6.87,5.93 -13.76,11.83 -20.66,17.73l-157.04 134.77 4.2 51.52z"/>
    <path class="fil20" d="M17267.22 2604.44l145.66 -132.44c4.11,-3.71 8.46,-7.29 12.37,-11.2 7.75,-7.69 17,-7.95 27.07,-8.77l697.09 -57.99 -2.98 -36.49 -684.95 57c-6.98,0.6 -16.6,1.85 -22.04,6.56 -6.9,5.93 -13.79,11.8 -20.66,17.73l-154.28 132.38 2.72 33.22z"/>
    <path class="fil21" d="M17273.21 2589.27l134.82 -122.6c4.03,-3.66 8.31,-7.15 12.14,-10.98 17.82,-17.76 11.41,-9.16 31.55,-10.84l689.92 -57.39 -1.79 -22.1 -677.77 56.37c-5.08,0.43 -14.02,1.45 -17.96,4.82 -6.87,5.93 -13.76,11.83 -20.66,17.74l-151.47 129.99 1.22 14.99z"/>
    <path class="fil22" d="M17441.08 2438.67c3.21,-0.43 6.53,-0.71 10.05,-1.02l682.76 -56.78 -0.65 -7.74 -670.57 55.81c-2.98,0.22 -11.63,1.16 -13.84,3.09 -2.58,2.21 -5.17,4.42 -7.75,6.64z"/>
   </g>
   <path class="fil18" d="M17259.23 2683.75l-3.99 -48.93c6,-5.05 70.97,-64.47 114.57,-104.13 26.13,-23.77 41.92,-30.21 45.19,-32.99 14.49,-7.98 25.61,-11.1 39.94,-12.29l711.56 -59.18 5.32 65.19c-238.91,19.87 -477.78,39.74 -716.68,59.6 -5.07,0.43 -10.98,1.86 -15.19,3.43 -4.21,1.58 -5.98,3.04 -8.95,5.65l-171.77 123.65z"/>
   <g id="_1763551352016">
    <path class="fil19" d="M17265.38 2670.44l161.4 -116.19c3.83,-2.78 5.88,-4.73 10.61,-6.55 5.22,-1.96 11.55,-3.4 17.14,-3.86 236.51,-19.8 473.01,-39.32 709.52,-59.01l-4.14 -50.84 -704.39 58.58c-14.18,1.2 -24.2,4.32 -36.14,10.84 -13.05,11.12 -28.94,18.25 -44.72,32.6 -36.71,33.39 -74.22,69.88 -111.92,101.94l2.64 32.49z"/>
    <path class="fil20" d="M17271.53 2657.13l151.03 -108.72c4.42,-3.18 6.83,-5.36 12.28,-7.43 5.85,-2.22 12.85,-3.81 19.09,-4.32 234.1,-19.6 468.22,-38.92 702.35,-58.41l-2.98 -36.49 -697.18 57.99c-12.71,1.08 -21.85,3.92 -32.94,9.93 -12.91,10.61 -28.37,17.76 -43.66,31.67 -35.89,32.59 -72.47,68.14 -109.32,99.67l1.33 16.11z"/>
    <path class="fil21" d="M17279.73 2642.32l138.63 -99.75c4.96,-3.58 7.83,-6.02 13.93,-8.35 14.38,-5.42 3.77,-3.29 21.02,-4.73 231.74,-19.41 463.48,-38.56 695.19,-57.83l-1.78 -22.1 -690 57.37c-11.5,0.96 -19.58,3.46 -29.54,8.77 -12.8,10.35 -27.83,17.33 -42.81,30.98 -34.36,31.24 -69.37,65.14 -104.64,95.64z"/>
    <path class="fil22" d="M17375.71 2564.38l38.42 -27.69c5.5,-3.94 8.85,-6.64 15.6,-9.19 14.98,-5.67 5.05,-3.69 22.98,-5.19 229.33,-19.21 458.69,-38.16 688.05,-57.23l-0.65 -7.74 -682.8 56.8c-10.3,0.85 -17.36,2.98 -26.16,7.6 -12.68,10.1 -27.26,16.91 -41.96,30.27 -4.48,4.09 -8.96,8.2 -13.48,12.37z"/>
   </g>
   <path class="fil8" d="M17446.83 2636.49l731.85 -60.86 -5.31 -65.2c-240.18,19.98 -480.38,39.96 -720.56,59.93 -3.77,0.31 -7.91,1.03 -11.35,2 -3.44,0.97 -5.96,2.18 -8.96,3.79l-173.27 107.6 -0.78 26.89 117.76 -34.17 70.62 -39.98z"/>
   <g id="_1763551350032">
    <path class="fil9" d="M18170.92 2569.04l-4.14 -50.85c-237.82,19.81 -475.6,39.55 -713.38,59.36 -3.3,0.28 -6.81,0.85 -10.02,1.76 -2.61,0.71 -4.79,1.53 -7.09,2.98l-169.98 105.54 -0.37 13.13 107.11 -30.92 71.58 -40.6 726.29 -60.4z"/>
    <path class="fil10" d="M18163.14 2562.45l-2.98 -36.48c-235.37,19.6 -470.77,39.18 -706.17,58.76 -10.44,0.88 0.74,-1.11 -8.65,1.5 -9.36,2.64 1.98,-2.33 -5.25,2.18l-164.87 102.37 95.36 -27.66 71.89 -40.72 720.67 -59.95z"/>
    <path class="fil11" d="M18155.37 2555.87l-1.79 -22.1c-232.99,19.41 -466,38.76 -698.99,58.13 -2.39,0.2 -5,0.63 -7.32,1.28 -1.25,0.34 -2.27,0.65 -3.38,1.33l-120.35 74.74 44.23 -12.83 72.52 -41.08 715.08 -59.47z"/>
    <path class="fil12" d="M18147.62 2549.29l-0.65 -7.75c-230.58,19.21 -461.18,38.36 -691.79,57.54 -9.64,0.82 2.44,-1.33 -7.49,1.56l-40.91 25.39 31.32 -17.73 709.52 -59.01z"/>
   </g>
   <polygon class="fil13" points="17591.34,2645.02 17727.27,2633.7 17732.38,2696.11 17596.42,2707.43 "/>
   <polygon class="fil13" points="17941.73,2615.88 18077.69,2604.56 18082.77,2666.98 17946.84,2678.3 "/>
   <g>
    <path class="fil2" d="M17261.4 2746.49l-2.95 -35.85 189.93 -55.13 731.85 -60.87 5.32 65.19 -731.86 60.87 -192.29 25.79zm-2.95 -35.85l2.95 35.85 -2.95 -35.85z"/>
   </g>
   <g>
    <polygon class="fil14" points="17267.96,2738.36 17453,2713.53 18177.78,2653.24 18173.64,2602.4 17450.02,2662.49 17266.11,2715.92 "/>
    <polygon class="fil15" points="17274.51,2730.19 17452.32,2706.36 18170.01,2646.66 18167.03,2610.18 17451.01,2669.76 17273.77,2721.19 "/>
    <polygon class="fil16" points="17310.09,2718.16 17451.61,2699.21 18162.24,2640.08 18160.45,2617.98 17452.32,2676.88 "/>
    <polygon class="fil17" points="17404.62,2698.24 17450.93,2692.03 18154.49,2633.5 18153.84,2625.75 17453.65,2684 "/>
   </g>
   <polygon class="fil23" points="17679.49,3039.58 17815.42,3028.26 17810.34,2965.84 17674.38,2977.16 "/>
   <polygon class="fil24" points="18029.88,3010.44 18165.84,2999.12 18160.73,2936.71 18024.8,2948.03 "/>
   <polygon class="fil25" points="17573.07,2878.88 17709,2867.56 17703.92,2805.15 17567.96,2816.47 "/>
   <polygon class="fil26" points="17923.46,2849.75 18059.39,2838.43 18054.31,2776.01 17918.38,2787.3 "/>
   <polygon class="fil27" points="17620.28,2705.45 17756.21,2694.16 17751.13,2631.74 17615.17,2643.03 "/>
   <polygon class="fil28" points="17970.67,2676.31 18106.63,2664.99 18101.52,2602.57 17965.59,2613.89 "/>
   <polygon class="fil29" points="17547.65,2541.94 17683.58,2530.62 17678.5,2468.2 17542.54,2479.52 "/>
   <polygon class="fil30" points="17898.04,2512.8 18033.97,2501.48 18028.89,2439.06 17892.96,2450.39 "/>
   <g>
    <g style="clip-path:url(#id0)">
     <image x="17044.4" y="2304.59" width="1206.12" height="819.15" xlink:href="homenet_Images\homenet_ImgID1.png"/>
    </g>
    <polygon class="fil31 str3" points="17044.4,2399.98 18191.51,2304.59 18250.52,3028.32 17103.41,3123.74 "/>
   </g>
   <g>
    <g style="clip-path:url(#id1)">
     <image x="17805.8" y="2443.19" width="507.54" height="464.35" xlink:href="homenet_Images\homenet_ImgID2.png"/>
    </g>
   </g>
   <polygon class="fil32 str4" style="mask:url(#id2)" points="17839.93,2520.69 18243.78,2487.13 18272.52,2839.62 17868.67,2873.21 "/>
   <g>
    <g style="clip-path:url(#id4)">
     <image x="17308.91" y="2554.62" width="765.52" height="294.8" xlink:href="homenet_Images\homenet_ImgID3.png"/>
    </g>
   </g>
   <polygon class="fil13 str5" style="mask:url(#id5)" points="17332.99,2652.36 17948.06,2601.21 17962.3,2775.92 17347.23,2827.08 "/>
   <circle class="fil1 str1" cx="18528.08" cy="11406.96" r="240.27"/>
   <path class="fil33 str2" d="M18350.08 11555.95c-818.07,-83.8 -1636.13,-167.28 -2454.34,-249.26 -1140.49,-114.22 -2280.84,-223.56 -3423.32,-312.89 -1273.23,-99.56 -2553.09,-181.48 -3828.96,-224.69 -942.81,-31.93 -1882.86,-36.41 -2825.17,1.07 -749.04,29.81 -1495.02,85.85 -2242.21,143.93l-162.66 12.65 -25.99 -339.69 162.63 -12.62c751.16,-58.41 1501.01,-114.65 2254,-144.62 950,-37.82 1897.72,-33.35 2848.18,-1.18 1280.5,43.37 2564.96,125.56 3842.8,225.48 1144.74,89.5 2287.36,199.04 3430.14,313.52 818.42,81.97 1636.73,165.48 2454.99,249.3l162.47 16.66c87.09,8.47 157.4,60.09 143.04,190.67 -14.36,130.58 -105.09,153.61 -173.16,148.3l-162.44 -16.63z"/>
   <circle class="fil1 str1" cx="15794.94" cy="10070.43" r="240.27"/>
   <path class="fil2 str2" d="M15692.98 10228.4c-686.29,-87.05 -1372.56,-173.8 -2058.95,-259.03 -956.75,-118.76 -1913.36,-232.65 -2871.68,-326.53 -1067.97,-104.62 -2141.43,-191.65 -3211.37,-239.95 -790.64,-35.69 -1578.84,-43.93 -2368.75,-10.21 -627.89,26.82 -1253.1,79.87 -1879.32,134.96l-136.32 12 -23.33 -339.75 136.31 -11.98c629.54,-55.39 1258,-108.64 1889.2,-135.59 796.35,-34.02 1590.98,-25.78 2388.03,10.18 1073.82,48.49 2151.14,135.79 3222.99,240.8 960.21,94.06 1918.72,208.15 2877.39,327.18 686.57,85.23 1373.05,172 2059.49,259.08l136.3 17.3c84.29,15.67 125.58,101.29 114.12,184.03 -11.47,82.75 -66.25,160.74 -137.84,154.79l-136.27 -17.28z"/>
   <circle class="fil1 str1" cx="17095.13" cy="10744.71" r="240.27"/>
   <path class="fil2 str2" d="M16959.74 10895.34c-715.72,-86.33 -1431.44,-172.35 -2147.28,-256.85 -997.8,-117.75 -1995.46,-230.62 -2994.92,-323.48 -1113.83,-103.5 -2233.4,-189.38 -3349.35,-236.55 -824.63,-34.85 -1646.76,-42.24 -2470.71,-7.68 -654.96,27.49 -1307.15,81.2 -1960.39,136.96l-142.21 12.15 -23.92 -339.75 142.18 -12.11c656.71,-56.07 1312.3,-109.99 1970.7,-137.62 830.68,-34.87 1659.51,-27.46 2490.84,7.65 1119.99,47.34 2243.59,133.5 3361.45,237.38 1001.44,93.04 2001.08,206.11 3000.89,324.12 716.03,84.51 1431.96,170.55 2147.85,256.9l142.15 17.16c93.42,14.3 144.85,96.17 132.13,196.81 -12.73,100.64 -85.45,144.75 -157.29,142.04l-142.12 -17.13z"/>
   <path class="fil3" d="M16781.48 3568.16l189.73 122.44c6.27,4.03 9.79,5.96 14.57,9.38 4.78,3.42 11.77,2.16 18.57,1.59l711.45 -59.17 5.32 65.19 -699.35 58.17c-10.83,0.9 -22.39,0.66 -31.49,-4.88 -9.1,-5.54 -14.01,-8.49 -23.22,-14.05l-179.89 -108.93 -5.69 -69.74z"/>
   <g>
    <path class="fil4" d="M16789.86 3582.16l4.2 51.49 176.75 107.02c7.72,4.68 15.49,9.33 23.21,14.04 7.75,4.71 18.38,4.6 27.15,3.86l692.16 -57.56 -4.14 -50.85 -704.25 58.59c-7.97,0.68 -16.34,2.13 -23.38,-2.89 -4.59,-3.29 -9.5,-6.16 -14.27,-9.22l-177.43 -114.48z"/>
    <path class="fil5" d="M16798.23 3596.12l2.69 33.28 173.61 105.08c7.74,4.71 15.52,9.37 23.23,14.08 6.16,3.74 15.84,3.4 22.82,2.83l685 -56.97 -2.98 -36.48 -697.06 57.99c-10.07,0.85 -19.27,2.16 -28.17,-4.23 -4.49,-3.2 -9.34,-6.01 -13.96,-8.99l-165.18 -106.59z"/>
    <path class="fil6" d="M16806.6 3610.1l1.22 15.04 170.45 103.19c7.75,4.71 15.52,9.36 23.24,14.07 4.45,2.7 13.39,2.21 18.47,1.82l677.83 -56.38 -1.82 -22.1 -689.86 57.37c-20.17,1.7 -12.45,9.1 -32.94,-5.53 -4.39,-3.15 -9.16,-5.88 -13.7,-8.83l-152.89 -98.65z"/>
    <path class="fil7" d="M16996.52 3730.97c2.92,1.76 5.84,3.51 8.74,5.27 2.49,1.54 11.15,1.03 14.12,0.77l670.66 -55.75 -0.63 -7.75 -682.68 56.8c-3.55,0.29 -6.92,0.54 -10.21,0.66z"/>
   </g>
   <path class="fil3" d="M16777.49 3519.23l3.99 48.93c6.74,3.99 80.45,51.88 129.89,83.8 29.63,19.13 46.25,22.87 49.92,25.08 15.59,5.48 27.07,6.72 41.4,5.53l711.56 -59.18 -5.32 -65.2c-238.9,19.87 -477.77,39.74 -716.68,59.61 -5.06,0.42 -11.13,-0.01 -15.54,-0.87 -4.4,-0.86 -6.38,-2.01 -9.74,-4.09l-189.48 -93.61z"/>
   <g>
    <path class="fil4" d="M16785.71 3531.31l2.64 32.58c42.36,25.22 85.4,55.18 126.94,82.02 17.99,11.6 34.5,15.91 48.71,24.48 13.51,4.74 23.92,6.16 38.11,5l704.35 -58.59 -4.14 -50.84c-236.48,19.69 -472.98,39.26 -709.46,59.01 -5.59,0.48 -12.06,0.11 -17.54,-0.96 -4.99,-0.97 -7.26,-2.62 -11.52,-4.71l-178.09 -87.99z"/>
    <path class="fil5" d="M16793.91 3543.43l1.34 16.17c41.39,24.85 83.38,54.05 123.95,80.24 17.42,11.26 33.57,15.66 48.12,24.03 11.97,4.08 21.45,5.39 34.19,4.34l697.21 -57.99 -2.98 -36.49c-234.1,19.49 -468.19,38.9 -702.29,58.42 -6.24,0.54 -13.39,0.14 -19.52,-1.08 -5.79,-1.14 -8.42,-2.89 -13.33,-5.33l-166.69 -82.31z"/>
    <path class="fil6" d="M16803.76 3556.31c39.92,24.29 80.29,52.26 119.33,77.48 17.11,11.04 32.8,15.35 47.21,23.47 10.7,3.57 19.1,4.71 30.61,3.77l690.03 -57.4 -1.81 -22.1c-231.69,19.27 -463.37,38.47 -695.08,57.8 -6.9,0.59 -14.73,0.17 -21.51,-1.17 -6.49,-1.27 -9.62,-3.23 -15.12,-5.96l-153.66 -75.89z"/>
    <path class="fil7" d="M16911.15 3617.39c5.3,3.49 10.61,6.96 15.86,10.36 16.74,10.78 31.97,15.01 46.18,22.9 9.48,3.09 16.8,4.05 27.13,3.17l682.85 -56.77 -0.62 -7.74c-229.3,19.06 -458.61,38.07 -687.88,57.19 -18.01,1.51 -7.83,1.82 -23.52,-1.27 -7.18,-1.42 -10.81,-3.55 -16.94,-6.56l-43.06 -21.28z"/>
   </g>
   <path class="fil8" d="M16970.21 3534.85l731.86 -60.86 5.31 65.19c-240.17,19.97 -480.38,39.95 -720.55,59.93 -3.77,0.31 -7.97,0.29 -11.52,-0.1 -3.55,-0.39 -6.23,-1.16 -9.46,-2.26l-188.36 -77.52 -5.12 -26.4 121.71 14.26 76.13 27.76z"/>
   <g>
    <path class="fil9" d="M16781.32 3501.13l2.49 12.91 184.79 76.03c2.5,1.05 4.79,1.48 7.49,1.79 3.32,0.37 6.84,0.34 10.16,0.06 237.78,-19.72 475.56,-39.55 713.35,-59.33l-4.15 -50.84 -726.23 60.43 -76.4 -28.03 -111.5 -13.02z"/>
    <path class="fil10" d="M16890.72 3521.21l-98.68 -11.57 179.28 73.77c7.89,3.23 -4.17,0.19 5.56,1.27 9.65,1.08 -1.78,0.94 8.77,0.06 235.4,-19.52 470.8,-39.15 706.2,-58.73l-2.98 -36.49 -720.61 59.98 -77.54 -28.29z"/>
    <path class="fil11" d="M16889.04 3528.25l-45.84 -5.36 130.87 53.85c1.2,0.51 2.33,0.65 3.61,0.79 2.38,0.26 4.99,0.23 7.37,0.03 233.02,-19.35 466.01,-38.76 699.03,-58.13l-1.82 -22.1 -714.99 59.46 -78.23 -28.54z"/>
    <path class="fil12" d="M16938.16 3553.84l40.34 16.51c8.54,0.97 -3.86,0.83 5.96,0 230.63,-19.12 461.24,-38.33 691.84,-57.51l-0.62 -7.74 -709.38 59.01 -28.14 -10.27z"/>
   </g>
   <polygon class="fil13" points="17111.39,3502.57 17247.35,3491.25 17242.24,3428.84 17106.32,3440.16 "/>
   <polygon class="fil13" points="17461.81,3473.44 17597.74,3462.12 17592.66,3399.7 17456.71,3411.02 "/>
   <g>
    <path class="fil2" d="M16769.47 3456.97l2.9 35.86 196.29 23.01 731.86 -60.87 -5.32 -65.19 -731.85 60.87 -193.88 6.32zm2.9 35.86l-2.9 -35.86 2.9 35.86z"/>
   </g>
   <g>
    <polygon class="fil14" points="16777.26,3463.93 16779.08,3486.35 16968.43,3508.67 17692.73,3448.38 17688.59,3397.54 16963.66,3457.86 "/>
    <polygon class="fil15" points="16785.06,3470.88 16785.77,3479.88 16968.91,3501.38 17684.99,3441.8 17682.01,3405.32 16964,3465.04 "/>
    <polygon class="fil16" points="16822.17,3476.9 16969.02,3494.12 17677.21,3435.22 17675.4,3413.12 16964.31,3472.24 "/>
    <polygon class="fil17" points="16918.58,3480.95 16969.14,3486.88 17669.44,3428.64 17668.81,3420.89 16964.66,3479.45 "/>
   </g>
   <path class="fil18" d="M16763.35 3345.81l167.34 -152.13c5.54,-5.02 8.69,-7.51 12.86,-11.67 4.16,-4.16 11.26,-4.07 18.06,-4.64l711.45 -59.17 -5.31 -65.19 -699.34 58.16c-10.84,0.91 -22.21,3.05 -30.29,10.01 -8.08,6.97 -12.44,10.7 -20.62,17.7l-159.83 137.18 5.68 69.75z"/>
   <g>
    <path class="fil19" d="M16769.34 3330.64l156.5 -142.31c4.2,-3.8 8.6,-7.43 12.63,-11.44 6.1,-6.1 14.58,-6.04 22.55,-6.69l704.28 -58.59 -4.15 -50.84 -692.15 57.59c-8.77,0.74 -19.3,2.36 -26.16,8.26 -6.87,5.93 -13.76,11.83 -20.66,17.73l-157.04 134.77 4.2 51.52z"/>
    <path class="fil20" d="M16775.33 3315.43l145.66 -132.44c4.11,-3.71 8.46,-7.29 12.37,-11.2 7.75,-7.69 17,-7.95 27.07,-8.77l697.09 -57.99 -2.98 -36.49 -684.95 57c-6.98,0.6 -16.6,1.85 -22.04,6.56 -6.9,5.93 -13.79,11.8 -20.66,17.73l-154.28 132.38 2.72 33.22z"/>
    <path class="fil21" d="M16781.32 3300.26l134.82 -122.6c4.03,-3.66 8.31,-7.15 12.14,-10.98 17.82,-17.76 11.41,-9.16 31.55,-10.84l689.92 -57.39 -1.79 -22.1 -677.77 56.37c-5.08,0.43 -14.02,1.45 -17.96,4.82 -6.87,5.93 -13.76,11.83 -20.66,17.74l-151.47 129.99 1.22 14.99z"/>
    <path class="fil22" d="M16949.19 3149.66c3.21,-0.43 6.53,-0.71 10.05,-1.02l682.76 -56.78 -0.65 -7.74 -670.57 55.81c-2.98,0.22 -11.63,1.16 -13.84,3.09 -2.58,2.21 -5.17,4.42 -7.75,6.64z"/>
   </g>
   <path class="fil18" d="M16767.34 3394.74l-3.99 -48.93c6,-5.05 70.97,-64.47 114.57,-104.13 26.13,-23.77 41.92,-30.21 45.19,-32.99 14.49,-7.98 25.61,-11.1 39.94,-12.29l711.56 -59.18 5.32 65.19c-238.91,19.87 -477.78,39.74 -716.68,59.6 -5.07,0.43 -10.98,1.86 -15.19,3.43 -4.21,1.58 -5.98,3.04 -8.95,5.65l-171.77 123.65z"/>
   <g>
    <path class="fil19" d="M16773.49 3381.43l161.4 -116.19c3.83,-2.78 5.88,-4.73 10.61,-6.55 5.22,-1.96 11.55,-3.4 17.14,-3.86 236.51,-19.8 473.01,-39.32 709.52,-59.01l-4.14 -50.84 -704.39 58.58c-14.18,1.2 -24.2,4.32 -36.14,10.84 -13.05,11.12 -28.94,18.25 -44.72,32.6 -36.71,33.39 -74.22,69.88 -111.92,101.94l2.64 32.49z"/>
    <path class="fil20" d="M16779.64 3368.12l151.03 -108.72c4.42,-3.18 6.83,-5.36 12.28,-7.43 5.85,-2.22 12.85,-3.81 19.09,-4.32 234.1,-19.6 468.22,-38.92 702.35,-58.41l-2.98 -36.49 -697.18 57.99c-12.71,1.08 -21.85,3.92 -32.94,9.93 -12.91,10.61 -28.37,17.76 -43.66,31.67 -35.89,32.59 -72.47,68.14 -109.32,99.67l1.33 16.11z"/>
    <path class="fil21" d="M16787.84 3353.31l138.63 -99.75c4.96,-3.58 7.83,-6.02 13.93,-8.35 14.38,-5.42 3.77,-3.29 21.02,-4.73 231.74,-19.41 463.48,-38.56 695.19,-57.83l-1.78 -22.1 -690 57.37c-11.5,0.96 -19.58,3.46 -29.54,8.77 -12.8,10.35 -27.83,17.33 -42.81,30.98 -34.36,31.24 -69.37,65.14 -104.64,95.64z"/>
    <path class="fil22" d="M16883.82 3275.37l38.42 -27.69c5.5,-3.94 8.85,-6.64 15.6,-9.19 14.98,-5.67 5.05,-3.69 22.98,-5.19 229.33,-19.21 458.69,-38.16 688.05,-57.23l-0.65 -7.74 -682.8 56.8c-10.3,0.85 -17.36,2.98 -26.16,7.6 -12.68,10.1 -27.26,16.91 -41.96,30.27 -4.48,4.09 -8.96,8.2 -13.48,12.37z"/>
   </g>
   <path class="fil8" d="M16954.94 3347.48l731.85 -60.86 -5.31 -65.2c-240.18,19.98 -480.38,39.96 -720.56,59.93 -3.77,0.31 -7.91,1.03 -11.35,2 -3.44,0.97 -5.96,2.18 -8.96,3.79l-173.27 107.6 -0.78 26.89 117.76 -34.17 70.62 -39.98z"/>
   <g>
    <path class="fil9" d="M17679.03 3280.03l-4.14 -50.85c-237.82,19.81 -475.6,39.55 -713.38,59.36 -3.3,0.28 -6.81,0.85 -10.02,1.76 -2.61,0.71 -4.79,1.53 -7.09,2.98l-169.98 105.54 -0.37 13.13 107.11 -30.92 71.58 -40.6 726.29 -60.4z"/>
    <path class="fil10" d="M17671.25 3273.44l-2.98 -36.48c-235.37,19.6 -470.77,39.18 -706.17,58.76 -10.44,0.88 0.74,-1.11 -8.65,1.5 -9.36,2.64 1.98,-2.33 -5.25,2.18l-164.87 102.37 95.36 -27.66 71.89 -40.72 720.67 -59.95z"/>
    <path class="fil11" d="M17663.48 3266.86l-1.79 -22.1c-232.99,19.41 -466,38.76 -698.99,58.13 -2.39,0.2 -5,0.63 -7.32,1.28 -1.25,0.34 -2.27,0.65 -3.38,1.33l-120.35 74.74 44.23 -12.83 72.52 -41.08 715.08 -59.47z"/>
    <path class="fil12" d="M17655.73 3260.28l-0.65 -7.75c-230.58,19.21 -461.18,38.36 -691.79,57.54 -9.64,0.82 2.44,-1.33 -7.49,1.56l-40.91 25.39 31.32 -17.73 709.52 -59.01z"/>
   </g>
   <polygon class="fil13" points="17099.45,3356.01 17235.38,3344.69 17240.49,3407.1 17104.53,3418.42 "/>
   <polygon class="fil13" points="17449.84,3326.87 17585.8,3315.55 17590.88,3377.97 17454.95,3389.29 "/>
   <g>
    <path class="fil2" d="M16769.51 3457.48l-2.95 -35.85 189.93 -55.13 731.85 -60.87 5.32 65.19 -731.86 60.87 -192.29 25.79zm-2.95 -35.85l2.95 35.85 -2.95 -35.85z"/>
   </g>
   <g>
    <polygon class="fil14" points="16776.07,3449.35 16961.11,3424.52 17685.89,3364.23 17681.75,3313.39 16958.13,3373.48 16774.22,3426.91 "/>
    <polygon class="fil15" points="16782.62,3441.18 16960.43,3417.35 17678.12,3357.65 17675.14,3321.17 16959.12,3380.75 16781.88,3432.18 "/>
    <polygon class="fil16" points="16818.2,3429.15 16959.72,3410.2 17670.35,3351.07 17668.56,3328.97 16960.43,3387.87 "/>
    <polygon class="fil17" points="16912.73,3409.23 16959.04,3403.02 17662.6,3344.49 17661.95,3336.74 16961.76,3394.99 "/>
   </g>
   <polygon class="fil34" points="17187.6,3750.57 17323.53,3739.25 17318.45,3676.83 17182.49,3688.15 "/>
   <polygon class="fil24" points="17537.99,3721.43 17673.95,3710.11 17668.84,3647.7 17532.91,3659.02 "/>
   <polygon class="fil25" points="17081.18,3589.87 17217.11,3578.55 17212.03,3516.14 17076.07,3527.46 "/>
   <polygon class="fil26" points="17431.57,3560.74 17567.5,3549.42 17562.42,3487 17426.49,3498.29 "/>
   <polygon class="fil35" points="17128.39,3416.44 17264.32,3405.15 17259.24,3342.73 17123.28,3354.02 "/>
   <polygon class="fil28" points="17478.78,3387.3 17614.74,3375.98 17609.63,3313.56 17473.7,3324.88 "/>
   <polygon class="fil36" points="17055.76,3252.93 17191.69,3241.61 17186.61,3179.19 17050.65,3190.51 "/>
   <polygon class="fil37" points="17406.15,3223.79 17542.08,3212.47 17537,3150.05 17401.07,3161.38 "/>
   <g>
    <g style="clip-path:url(#id7)">
     <image x="16552.51" y="3015.58" width="1206.12" height="819.15" xlink:href="homenet_Images\homenet_ImgID4.png"/>
    </g>
    <polygon class="fil31 str3" points="16552.51,3110.97 17699.62,3015.58 17758.63,3739.31 16611.52,3834.73 "/>
   </g>
   <g>
    <g style="clip-path:url(#id8)">
     <image x="17313.91" y="3154.18" width="507.54" height="464.35" xlink:href="homenet_Images\homenet_ImgID5.png"/>
    </g>
   </g>
   <polygon class="fil32 str4" style="mask:url(#id9)" points="17348.04,3231.68 17751.89,3198.12 17780.63,3550.61 17376.78,3584.2 "/>
   <g>
    <g style="clip-path:url(#id11)">
     <image x="16817.02" y="3265.61" width="765.52" height="294.8" xlink:href="homenet_Images\homenet_ImgID6.png"/>
    </g>
   </g>
   <polygon class="fil13 str5" style="mask:url(#id12)" points="16841.1,3363.35 17456.17,3312.2 17470.41,3486.91 16855.34,3538.07 "/>
   <path class="fil3" d="M17512.26 4244.79l189.73 122.44c6.27,4.03 9.79,5.96 14.57,9.38 4.78,3.42 11.77,2.16 18.57,1.59l711.45 -59.17 5.32 65.19 -699.35 58.17c-10.83,0.9 -22.39,0.66 -31.49,-4.88 -9.1,-5.54 -14.01,-8.49 -23.22,-14.05l-179.89 -108.93 -5.69 -69.74z"/>
   <g>
    <path class="fil4" d="M17520.64 4258.79l4.2 51.49 176.75 107.02c7.72,4.68 15.49,9.33 23.21,14.04 7.75,4.71 18.38,4.6 27.15,3.86l692.16 -57.56 -4.14 -50.85 -704.25 58.59c-7.97,0.68 -16.34,2.13 -23.38,-2.89 -4.59,-3.29 -9.5,-6.16 -14.27,-9.22l-177.43 -114.48z"/>
    <path class="fil5" d="M17529.01 4272.75l2.69 33.28 173.61 105.08c7.74,4.71 15.52,9.37 23.23,14.08 6.16,3.74 15.84,3.4 22.82,2.83l685 -56.97 -2.98 -36.48 -697.06 57.99c-10.07,0.85 -19.27,2.16 -28.17,-4.23 -4.49,-3.2 -9.34,-6.01 -13.96,-8.99l-165.18 -106.59z"/>
    <path class="fil6" d="M17537.38 4286.73l1.22 15.04 170.45 103.19c7.75,4.71 15.52,9.36 23.24,14.07 4.45,2.7 13.39,2.21 18.47,1.82l677.83 -56.38 -1.82 -22.1 -689.86 57.37c-20.17,1.7 -12.45,9.1 -32.94,-5.53 -4.39,-3.15 -9.16,-5.88 -13.7,-8.83l-152.89 -98.65z"/>
    <path class="fil7" d="M17727.3 4407.6c2.92,1.76 5.84,3.51 8.74,5.27 2.49,1.54 11.15,1.03 14.12,0.77l670.66 -55.75 -0.63 -7.75 -682.68 56.8c-3.55,0.29 -6.92,0.54 -10.21,0.66z"/>
   </g>
   <path class="fil3" d="M17508.27 4195.86l3.99 48.93c6.74,3.99 80.45,51.88 129.89,83.8 29.63,19.13 46.25,22.87 49.92,25.08 15.59,5.48 27.07,6.72 41.4,5.53l711.56 -59.18 -5.32 -65.2c-238.9,19.87 -477.77,39.74 -716.68,59.61 -5.06,0.42 -11.13,-0.01 -15.54,-0.87 -4.4,-0.86 -6.38,-2.01 -9.74,-4.09l-189.48 -93.61z"/>
   <g>
    <path class="fil4" d="M17516.49 4207.94l2.64 32.58c42.36,25.22 85.4,55.18 126.94,82.02 17.99,11.6 34.5,15.91 48.71,24.48 13.51,4.74 23.92,6.16 38.11,5l704.35 -58.59 -4.14 -50.84c-236.48,19.69 -472.98,39.26 -709.46,59.01 -5.59,0.48 -12.06,0.11 -17.54,-0.96 -4.99,-0.97 -7.26,-2.62 -11.52,-4.71l-178.09 -87.99z"/>
    <path class="fil5" d="M17524.69 4220.06l1.34 16.17c41.39,24.85 83.38,54.05 123.95,80.24 17.42,11.26 33.57,15.66 48.12,24.03 11.97,4.08 21.45,5.39 34.19,4.34l697.21 -57.99 -2.98 -36.49c-234.1,19.49 -468.19,38.9 -702.29,58.42 -6.24,0.54 -13.39,0.14 -19.52,-1.08 -5.79,-1.14 -8.42,-2.89 -13.33,-5.33l-166.69 -82.31z"/>
    <path class="fil6" d="M17534.54 4232.94c39.92,24.29 80.29,52.26 119.33,77.48 17.11,11.04 32.8,15.35 47.21,23.47 10.7,3.57 19.1,4.71 30.61,3.77l690.03 -57.4 -1.81 -22.1c-231.69,19.27 -463.37,38.47 -695.08,57.8 -6.9,0.59 -14.73,0.17 -21.51,-1.17 -6.49,-1.27 -9.62,-3.23 -15.12,-5.96l-153.66 -75.89z"/>
    <path class="fil7" d="M17641.93 4294.02c5.3,3.49 10.61,6.96 15.86,10.36 16.74,10.78 31.97,15.01 46.18,22.9 9.48,3.09 16.8,4.05 27.13,3.17l682.85 -56.77 -0.62 -7.74c-229.3,19.06 -458.61,38.07 -687.88,57.19 -18.01,1.51 -7.83,1.82 -23.52,-1.27 -7.18,-1.42 -10.81,-3.55 -16.94,-6.56l-43.06 -21.28z"/>
   </g>
   <path class="fil8" d="M17700.99 4211.48l731.86 -60.86 5.31 65.19c-240.17,19.97 -480.38,39.95 -720.55,59.93 -3.77,0.31 -7.97,0.29 -11.52,-0.1 -3.55,-0.39 -6.23,-1.16 -9.46,-2.26l-188.36 -77.52 -5.12 -26.4 121.71 14.26 76.13 27.76z"/>
   <g>
    <path class="fil9" d="M17512.1 4177.76l2.49 12.91 184.79 76.03c2.5,1.05 4.79,1.48 7.49,1.79 3.32,0.37 6.84,0.34 10.16,0.06 237.78,-19.72 475.56,-39.55 713.35,-59.33l-4.15 -50.84 -726.23 60.43 -76.4 -28.03 -111.5 -13.02z"/>
    <path class="fil10" d="M17621.5 4197.84l-98.68 -11.57 179.28 73.77c7.89,3.23 -4.17,0.19 5.56,1.27 9.65,1.08 -1.78,0.94 8.77,0.06 235.4,-19.52 470.8,-39.15 706.2,-58.73l-2.98 -36.49 -720.61 59.98 -77.54 -28.29z"/>
    <path class="fil11" d="M17619.82 4204.88l-45.84 -5.36 130.87 53.85c1.2,0.51 2.33,0.65 3.61,0.79 2.38,0.26 4.99,0.23 7.37,0.03 233.02,-19.35 466.01,-38.76 699.03,-58.13l-1.82 -22.1 -714.99 59.46 -78.23 -28.54z"/>
    <path class="fil12" d="M17668.94 4230.47l40.34 16.51c8.54,0.97 -3.86,0.83 5.96,0 230.63,-19.12 461.24,-38.33 691.84,-57.51l-0.62 -7.74 -709.38 59.01 -28.14 -10.27z"/>
   </g>
   <polygon class="fil13" points="17842.17,4179.2 17978.13,4167.88 17973.02,4105.47 17837.1,4116.79 "/>
   <polygon class="fil13" points="18192.59,4150.07 18328.52,4138.75 18323.44,4076.33 18187.49,4087.65 "/>
   <g>
    <path class="fil2" d="M17500.25 4133.6l2.9 35.86 196.29 23.01 731.86 -60.87 -5.32 -65.19 -731.85 60.87 -193.88 6.32zm2.9 35.86l-2.9 -35.86 2.9 35.86z"/>
   </g>
   <g>
    <polygon class="fil14" points="17508.04,4140.56 17509.86,4162.98 17699.21,4185.3 18423.51,4125.01 18419.37,4074.17 17694.44,4134.49 "/>
    <polygon class="fil15" points="17515.84,4147.51 17516.55,4156.51 17699.69,4178.01 18415.77,4118.43 18412.79,4081.95 17694.78,4141.67 "/>
    <polygon class="fil16" points="17552.95,4153.53 17699.8,4170.75 18407.99,4111.85 18406.18,4089.75 17695.09,4148.87 "/>
    <polygon class="fil17" points="17649.36,4157.58 17699.92,4163.51 18400.22,4105.27 18399.59,4097.52 17695.44,4156.08 "/>
   </g>
   <path class="fil18" d="M17494.13 4022.44l167.34 -152.13c5.54,-5.02 8.69,-7.51 12.86,-11.67 4.16,-4.16 11.26,-4.07 18.06,-4.64l711.45 -59.17 -5.31 -65.19 -699.34 58.16c-10.84,0.91 -22.21,3.05 -30.29,10.01 -8.08,6.97 -12.44,10.7 -20.62,17.7l-159.83 137.18 5.68 69.75z"/>
   <g>
    <path class="fil19" d="M17500.12 4007.27l156.5 -142.31c4.2,-3.8 8.6,-7.43 12.63,-11.44 6.1,-6.1 14.58,-6.04 22.55,-6.69l704.28 -58.59 -4.15 -50.84 -692.15 57.59c-8.77,0.74 -19.3,2.36 -26.16,8.26 -6.87,5.93 -13.76,11.83 -20.66,17.73l-157.04 134.77 4.2 51.52z"/>
    <path class="fil20" d="M17506.11 3992.06l145.66 -132.44c4.11,-3.71 8.46,-7.29 12.37,-11.2 7.75,-7.69 17,-7.95 27.07,-8.77l697.09 -57.99 -2.98 -36.49 -684.95 57c-6.98,0.6 -16.6,1.85 -22.04,6.56 -6.9,5.93 -13.79,11.8 -20.66,17.73l-154.28 132.38 2.72 33.22z"/>
    <path class="fil21" d="M17512.1 3976.89l134.82 -122.6c4.03,-3.66 8.31,-7.15 12.14,-10.98 17.82,-17.76 11.41,-9.16 31.55,-10.84l689.92 -57.39 -1.79 -22.1 -677.77 56.37c-5.08,0.43 -14.02,1.45 -17.96,4.82 -6.87,5.93 -13.76,11.83 -20.66,17.74l-151.47 129.99 1.22 14.99z"/>
    <path class="fil22" d="M17679.97 3826.29c3.21,-0.43 6.53,-0.71 10.05,-1.02l682.76 -56.78 -0.65 -7.74 -670.57 55.81c-2.98,0.22 -11.63,1.16 -13.84,3.09 -2.58,2.21 -5.17,4.42 -7.75,6.64z"/>
   </g>
   <path class="fil18" d="M17498.12 4071.37l-3.99 -48.93c6,-5.05 70.97,-64.47 114.57,-104.13 26.13,-23.77 41.92,-30.21 45.19,-32.99 14.49,-7.98 25.61,-11.1 39.94,-12.29l711.56 -59.18 5.32 65.19c-238.91,19.87 -477.78,39.74 -716.68,59.6 -5.07,0.43 -10.98,1.86 -15.19,3.43 -4.21,1.58 -5.98,3.04 -8.95,5.65l-171.77 123.65z"/>
   <g>
    <path class="fil19" d="M17504.27 4058.06l161.4 -116.19c3.83,-2.78 5.88,-4.73 10.61,-6.55 5.22,-1.96 11.55,-3.4 17.14,-3.86 236.51,-19.8 473.01,-39.32 709.52,-59.01l-4.14 -50.84 -704.39 58.58c-14.18,1.2 -24.2,4.32 -36.14,10.84 -13.05,11.12 -28.94,18.25 -44.72,32.6 -36.71,33.39 -74.22,69.88 -111.92,101.94l2.64 32.49z"/>
    <path class="fil20" d="M17510.42 4044.75l151.03 -108.72c4.42,-3.18 6.83,-5.36 12.28,-7.43 5.85,-2.22 12.85,-3.81 19.09,-4.32 234.1,-19.6 468.22,-38.92 702.35,-58.41l-2.98 -36.49 -697.18 57.99c-12.71,1.08 -21.85,3.92 -32.94,9.93 -12.91,10.61 -28.37,17.76 -43.66,31.67 -35.89,32.59 -72.47,68.14 -109.32,99.67l1.33 16.11z"/>
    <path class="fil21" d="M17518.62 4029.94l138.63 -99.75c4.96,-3.58 7.83,-6.02 13.93,-8.35 14.38,-5.42 3.77,-3.29 21.02,-4.73 231.74,-19.41 463.48,-38.56 695.19,-57.83l-1.78 -22.1 -690 57.37c-11.5,0.96 -19.58,3.46 -29.54,8.77 -12.8,10.35 -27.83,17.33 -42.81,30.98 -34.36,31.24 -69.37,65.14 -104.64,95.64z"/>
    <path class="fil22" d="M17614.6 3952l38.42 -27.69c5.5,-3.94 8.85,-6.64 15.6,-9.19 14.98,-5.67 5.05,-3.69 22.98,-5.19 229.33,-19.21 458.69,-38.16 688.05,-57.23l-0.65 -7.74 -682.8 56.8c-10.3,0.85 -17.36,2.98 -26.16,7.6 -12.68,10.1 -27.26,16.91 -41.96,30.27 -4.48,4.09 -8.96,8.2 -13.48,12.37z"/>
   </g>
   <path class="fil8" d="M17685.72 4024.11l731.85 -60.86 -5.31 -65.2c-240.18,19.98 -480.38,39.96 -720.56,59.93 -3.77,0.31 -7.91,1.03 -11.35,2 -3.44,0.97 -5.96,2.18 -8.96,3.79l-173.27 107.6 -0.78 26.89 117.76 -34.17 70.62 -39.98z"/>
   <g>
    <path class="fil9" d="M18409.81 3956.66l-4.14 -50.85c-237.82,19.81 -475.6,39.55 -713.38,59.36 -3.3,0.28 -6.81,0.85 -10.02,1.76 -2.61,0.71 -4.79,1.53 -7.09,2.98l-169.98 105.54 -0.37 13.13 107.11 -30.92 71.58 -40.6 726.29 -60.4z"/>
    <path class="fil10" d="M18402.03 3950.07l-2.98 -36.48c-235.37,19.6 -470.77,39.18 -706.17,58.76 -10.44,0.88 0.74,-1.11 -8.65,1.5 -9.36,2.64 1.98,-2.33 -5.25,2.18l-164.87 102.37 95.36 -27.66 71.89 -40.72 720.67 -59.95z"/>
    <path class="fil11" d="M18394.26 3943.49l-1.79 -22.1c-232.99,19.41 -466,38.76 -698.99,58.13 -2.39,0.2 -5,0.63 -7.32,1.28 -1.25,0.34 -2.27,0.65 -3.38,1.33l-120.35 74.74 44.23 -12.83 72.52 -41.08 715.08 -59.47z"/>
    <path class="fil12" d="M18386.51 3936.91l-0.65 -7.75c-230.58,19.21 -461.18,38.36 -691.79,57.54 -9.64,0.82 2.44,-1.33 -7.49,1.56l-40.91 25.39 31.32 -17.73 709.52 -59.01z"/>
   </g>
   <polygon class="fil13" points="17830.23,4032.64 17966.16,4021.32 17971.27,4083.73 17835.31,4095.05 "/>
   <polygon class="fil13" points="18180.62,4003.5 18316.58,3992.18 18321.66,4054.6 18185.73,4065.92 "/>
   <g>
    <path class="fil2" d="M17500.29 4134.11l-2.95 -35.85 189.93 -55.13 731.85 -60.87 5.32 65.19 -731.86 60.87 -192.29 25.79zm-2.95 -35.85l2.95 35.85 -2.95 -35.85z"/>
   </g>
   <g>
    <polygon class="fil14" points="17506.85,4125.98 17691.89,4101.15 18416.67,4040.86 18412.53,3990.02 17688.91,4050.11 17505,4103.54 "/>
    <polygon class="fil15" points="17513.4,4117.81 17691.21,4093.98 18408.9,4034.28 18405.92,3997.8 17689.9,4057.38 17512.66,4108.81 "/>
    <polygon class="fil16" points="17548.98,4105.78 17690.5,4086.83 18401.13,4027.7 18399.34,4005.6 17691.21,4064.5 "/>
    <polygon class="fil17" points="17643.51,4085.86 17689.82,4079.65 18393.38,4021.12 18392.73,4013.37 17692.54,4071.62 "/>
   </g>
   <polygon class="fil38" points="17918.38,4427.2 18054.31,4415.88 18049.23,4353.46 17913.27,4364.78 "/>
   <polygon class="fil39" points="18268.77,4398.06 18404.73,4386.74 18399.62,4324.33 18263.69,4335.65 "/>
   <polygon class="fil25" points="17811.96,4266.5 17947.89,4255.18 17942.81,4192.77 17806.85,4204.09 "/>
   <polygon class="fil40" points="18162.35,4237.37 18298.28,4226.05 18293.2,4163.63 18157.27,4174.92 "/>
   <polygon class="fil41" points="17859.17,4093.07 17995.1,4081.78 17990.02,4019.36 17854.06,4030.65 "/>
   <polygon class="fil42" points="18209.56,4063.93 18345.52,4052.61 18340.41,3990.19 18204.48,4001.51 "/>
   <polygon class="fil29" points="17786.54,3929.56 17922.47,3918.24 17917.39,3855.82 17781.43,3867.14 "/>
   <polygon class="fil37" points="18136.93,3900.42 18272.86,3889.1 18267.78,3826.68 18131.85,3838.01 "/>
   <g>
    <g style="clip-path:url(#id14)">
     <image x="17283.29" y="3692.21" width="1206.12" height="819.15" xlink:href="homenet_Images\homenet_ImgID7.png"/>
    </g>
    <polygon class="fil31 str3" points="17283.29,3787.6 18430.4,3692.21 18489.41,4415.94 17342.3,4511.36 "/>
   </g>
   <g>
    <g style="clip-path:url(#id15)">
     <image x="18044.69" y="3830.81" width="507.54" height="464.35" xlink:href="homenet_Images\homenet_ImgID8.png"/>
    </g>
   </g>
   <polygon class="fil32 str4" style="mask:url(#id16)" points="18078.82,3908.31 18482.67,3874.75 18511.41,4227.24 18107.56,4260.83 "/>
   <g>
    <g style="clip-path:url(#id18)">
     <image x="17547.8" y="3942.24" width="765.52" height="294.8" xlink:href="homenet_Images\homenet_ImgID9.png"/>
    </g>
   </g>
   <polygon class="fil13 str5" style="mask:url(#id19)" points="17571.88,4039.98 18186.95,3988.83 18201.19,4163.54 17586.12,4214.7 "/>
   <path class="fil3" d="M3382.85 10648.17l-189.73 -122.44c-6.27,-4.03 -9.79,-5.96 -14.57,-9.38 -4.78,-3.42 -11.77,-2.16 -18.57,-1.59l-711.45 59.17 -5.32 -65.19 699.35 -58.17c10.83,-0.9 22.39,-0.66 31.49,4.88 9.1,5.54 14.01,8.49 23.22,14.05l179.89 108.93 5.69 69.74z"/>
   <g>
    <path class="fil4" d="M3374.47 10634.17l-4.2 -51.49 -176.75 -107.02c-7.72,-4.68 -15.49,-9.33 -23.21,-14.04 -7.75,-4.71 -18.38,-4.6 -27.15,-3.86l-692.16 57.56 4.14 50.85 704.25 -58.59c7.97,-0.68 16.34,-2.13 23.38,2.89 4.59,3.29 9.5,6.16 14.27,9.22l177.43 114.48z"/>
    <path class="fil5" d="M3366.1 10620.21l-2.69 -33.28 -173.61 -105.08c-7.74,-4.71 -15.52,-9.37 -23.23,-14.08 -6.16,-3.74 -15.84,-3.4 -22.82,-2.83l-685 56.97 2.98 36.48 697.06 -57.99c10.07,-0.85 19.27,-2.16 28.17,4.23 4.49,3.2 9.34,6.01 13.96,8.99l165.18 106.59z"/>
    <path class="fil6" d="M3357.73 10606.23l-1.22 -15.04 -170.45 -103.19c-7.75,-4.71 -15.52,-9.36 -23.24,-14.07 -4.45,-2.7 -13.39,-2.21 -18.47,-1.82l-677.83 56.38 1.82 22.1 689.86 -57.37c20.17,-1.7 12.45,-9.1 32.94,5.53 4.39,3.15 9.16,5.88 13.7,8.83l152.89 98.65z"/>
    <path class="fil7" d="M3167.81 10485.36c-2.92,-1.76 -5.84,-3.51 -8.74,-5.27 -2.49,-1.54 -11.15,-1.03 -14.12,-0.77l-670.66 55.75 0.63 7.75 682.68 -56.8c3.55,-0.29 6.92,-0.54 10.21,-0.66z"/>
   </g>
   <path class="fil3" d="M3386.84 10697.1l-3.99 -48.93c-6.74,-3.99 -80.45,-51.88 -129.89,-83.8 -29.63,-19.13 -46.25,-22.87 -49.92,-25.08 -15.59,-5.48 -27.07,-6.72 -41.4,-5.53l-711.56 59.18 5.32 65.2c238.9,-19.87 477.77,-39.74 716.68,-59.61 5.06,-0.42 11.13,0.01 15.54,0.87 4.4,0.86 6.38,2.01 9.74,4.09l189.48 93.61z"/>
   <g>
    <path class="fil4" d="M3378.62 10685.02l-2.64 -32.58c-42.36,-25.22 -85.4,-55.18 -126.94,-82.02 -17.99,-11.6 -34.5,-15.91 -48.71,-24.48 -13.51,-4.74 -23.92,-6.16 -38.11,-5l-704.35 58.59 4.14 50.84c236.48,-19.69 472.98,-39.26 709.46,-59.01 5.59,-0.48 12.06,-0.11 17.54,0.96 4.99,0.97 7.26,2.62 11.52,4.71l178.09 87.99z"/>
    <path class="fil5" d="M3370.42 10672.9l-1.34 -16.17c-41.39,-24.85 -83.38,-54.05 -123.95,-80.24 -17.42,-11.26 -33.57,-15.66 -48.12,-24.03 -11.97,-4.08 -21.45,-5.39 -34.19,-4.34l-697.21 57.99 2.98 36.49c234.1,-19.49 468.19,-38.9 702.29,-58.42 6.24,-0.54 13.39,-0.14 19.52,1.08 5.79,1.14 8.42,2.89 13.33,5.33l166.69 82.31z"/>
    <path class="fil6" d="M3360.57 10660.02c-39.92,-24.29 -80.29,-52.26 -119.33,-77.48 -17.11,-11.04 -32.8,-15.35 -47.21,-23.47 -10.7,-3.57 -19.1,-4.71 -30.61,-3.77l-690.03 57.4 1.81 22.1c231.69,-19.27 463.37,-38.47 695.08,-57.8 6.9,-0.59 14.73,-0.17 21.51,1.17 6.49,1.27 9.62,3.23 15.12,5.96l153.66 75.89z"/>
    <path class="fil7" d="M3253.18 10598.94c-5.3,-3.49 -10.61,-6.96 -15.86,-10.36 -16.74,-10.78 -31.97,-15.01 -46.18,-22.9 -9.48,-3.09 -16.8,-4.05 -27.13,-3.17l-682.85 56.77 0.62 7.74c229.3,-19.06 458.61,-38.07 687.88,-57.19 18.01,-1.51 7.83,-1.82 23.52,1.27 7.18,1.42 10.81,3.55 16.94,6.56l43.06 21.28z"/>
   </g>
   <path class="fil8" d="M3194.12 10681.48l-731.86 60.86 -5.31 -65.19c240.17,-19.97 480.38,-39.95 720.55,-59.93 3.77,-0.31 7.97,-0.29 11.52,0.1 3.55,0.39 6.23,1.16 9.46,2.26l188.36 77.52 5.12 26.4 -121.71 -14.26 -76.13 -27.76z"/>
   <g>
    <path class="fil9" d="M3383.01 10715.2l-2.49 -12.91 -184.79 -76.03c-2.5,-1.05 -4.79,-1.48 -7.49,-1.79 -3.32,-0.37 -6.84,-0.34 -10.16,-0.06 -237.78,19.72 -475.56,39.55 -713.35,59.33l4.15 50.84 726.23 -60.43 76.4 28.03 111.5 13.02z"/>
    <path class="fil10" d="M3273.61 10695.12l98.68 11.57 -179.28 -73.77c-7.89,-3.23 4.17,-0.19 -5.56,-1.27 -9.65,-1.08 1.78,-0.94 -8.77,-0.06 -235.4,19.52 -470.8,39.15 -706.2,58.73l2.98 36.49 720.61 -59.98 77.54 28.29z"/>
    <path class="fil11" d="M3275.29 10688.08l45.84 5.36 -130.87 -53.85c-1.2,-0.51 -2.33,-0.65 -3.61,-0.79 -2.38,-0.26 -4.99,-0.23 -7.37,-0.03 -233.02,19.35 -466.01,38.76 -699.03,58.13l1.82 22.1 714.99 -59.46 78.23 28.54z"/>
    <path class="fil12" d="M3226.17 10662.49l-40.34 -16.51c-8.54,-0.97 3.86,-0.83 -5.96,0 -230.63,19.12 -461.24,38.33 -691.84,57.51l0.62 7.74 709.38 -59.01 28.14 10.27z"/>
   </g>
   <polygon class="fil13" points="3052.94,10713.76 2916.98,10725.08 2922.09,10787.49 3058.01,10776.17 "/>
   <polygon class="fil13" points="2702.52,10742.89 2566.59,10754.21 2571.67,10816.63 2707.62,10805.31 "/>
   <g>
    <path class="fil2" d="M3394.86 10759.36l-2.9 -35.86 -196.29 -23.01 -731.86 60.87 5.32 65.19 731.85 -60.87 193.88 -6.32zm-2.9 -35.86l2.9 35.86 -2.9 -35.86z"/>
   </g>
   <g>
    <polygon class="fil14" points="3387.07,10752.4 3385.25,10729.98 3195.9,10707.66 2471.6,10767.95 2475.74,10818.79 3200.67,10758.47 "/>
    <polygon class="fil15" points="3379.27,10745.45 3378.56,10736.45 3195.42,10714.95 2479.34,10774.53 2482.32,10811.01 3200.33,10751.29 "/>
    <polygon class="fil16" points="3342.16,10739.43 3195.31,10722.21 2487.12,10781.11 2488.93,10803.21 3200.02,10744.09 "/>
    <polygon class="fil17" points="3245.75,10735.38 3195.19,10729.45 2494.89,10787.69 2495.52,10795.44 3199.67,10736.88 "/>
   </g>
   <path class="fil18" d="M3400.98 10870.52l-167.34 152.13c-5.54,5.02 -8.69,7.51 -12.86,11.67 -4.16,4.16 -11.26,4.07 -18.06,4.64l-711.45 59.17 5.31 65.19 699.34 -58.16c10.84,-0.91 22.21,-3.05 30.29,-10.01 8.08,-6.97 12.44,-10.7 20.62,-17.7l159.83 -137.18 -5.68 -69.75z"/>
   <g>
    <path class="fil19" d="M3394.99 10885.69l-156.5 142.31c-4.2,3.8 -8.6,7.43 -12.63,11.44 -6.1,6.1 -14.58,6.04 -22.55,6.69l-704.28 58.59 4.15 50.84 692.15 -57.59c8.77,-0.74 19.3,-2.36 26.16,-8.26 6.87,-5.93 13.76,-11.83 20.66,-17.73l157.04 -134.77 -4.2 -51.52z"/>
    <path class="fil20" d="M3389 10900.9l-145.66 132.44c-4.11,3.71 -8.46,7.29 -12.37,11.2 -7.75,7.69 -17,7.95 -27.07,8.77l-697.09 57.99 2.98 36.49 684.95 -57c6.98,-0.6 16.6,-1.85 22.04,-6.56 6.9,-5.93 13.79,-11.8 20.66,-17.73l154.28 -132.38 -2.72 -33.22z"/>
    <path class="fil21" d="M3383.01 10916.07l-134.82 122.6c-4.03,3.66 -8.31,7.15 -12.14,10.98 -17.82,17.76 -11.41,9.16 -31.55,10.84l-689.92 57.39 1.79 22.1 677.77 -56.37c5.08,-0.43 14.02,-1.45 17.96,-4.82 6.87,-5.93 13.76,-11.83 20.66,-17.74l151.47 -129.99 -1.22 -14.99z"/>
    <path class="fil22" d="M3215.14 11066.67c-3.21,0.43 -6.53,0.71 -10.05,1.02l-682.76 56.78 0.65 7.74 670.57 -55.81c2.98,-0.22 11.63,-1.16 13.84,-3.09 2.58,-2.21 5.17,-4.42 7.75,-6.64z"/>
   </g>
   <path class="fil18" d="M3396.99 10821.59l3.99 48.93c-6,5.05 -70.97,64.47 -114.57,104.13 -26.13,23.77 -41.92,30.21 -45.19,32.99 -14.49,7.98 -25.61,11.1 -39.94,12.29l-711.56 59.18 -5.32 -65.19c238.91,-19.87 477.78,-39.74 716.68,-59.6 5.07,-0.43 10.98,-1.86 15.19,-3.43 4.21,-1.58 5.98,-3.04 8.95,-5.65l171.77 -123.65z"/>
   <g>
    <path class="fil19" d="M3390.84 10834.9l-161.4 116.19c-3.83,2.78 -5.88,4.73 -10.61,6.55 -5.22,1.96 -11.55,3.4 -17.14,3.86 -236.51,19.8 -473.01,39.32 -709.52,59.01l4.14 50.84 704.39 -58.58c14.18,-1.2 24.2,-4.32 36.14,-10.84 13.05,-11.12 28.94,-18.25 44.72,-32.6 36.71,-33.39 74.22,-69.88 111.92,-101.94l-2.64 -32.49z"/>
    <path class="fil20" d="M3384.69 10848.21l-151.03 108.72c-4.42,3.18 -6.83,5.36 -12.28,7.43 -5.85,2.22 -12.85,3.81 -19.09,4.32 -234.1,19.6 -468.22,38.92 -702.35,58.41l2.98 36.49 697.18 -57.99c12.71,-1.08 21.85,-3.92 32.94,-9.93 12.91,-10.61 28.37,-17.76 43.66,-31.67 35.89,-32.59 72.47,-68.14 109.32,-99.67l-1.33 -16.11z"/>
    <path class="fil21" d="M3376.49 10863.02l-138.63 99.75c-4.96,3.58 -7.83,6.02 -13.93,8.35 -14.38,5.42 -3.77,3.29 -21.02,4.73 -231.74,19.41 -463.48,38.56 -695.19,57.83l1.78 22.1 690 -57.37c11.5,-0.96 19.58,-3.46 29.54,-8.77 12.8,-10.35 27.83,-17.33 42.81,-30.98 34.36,-31.24 69.37,-65.14 104.64,-95.64z"/>
    <path class="fil22" d="M3280.51 10940.96l-38.42 27.69c-5.5,3.94 -8.85,6.64 -15.6,9.19 -14.98,5.67 -5.05,3.69 -22.98,5.19 -229.33,19.21 -458.69,38.16 -688.05,57.23l0.65 7.74 682.8 -56.8c10.3,-0.85 17.36,-2.98 26.16,-7.6 12.68,-10.1 27.26,-16.91 41.96,-30.27 4.48,-4.09 8.96,-8.2 13.48,-12.37z"/>
   </g>
   <path class="fil8" d="M3209.39 10868.85l-731.85 60.86 5.31 65.2c240.18,-19.98 480.38,-39.96 720.56,-59.93 3.77,-0.31 7.91,-1.03 11.35,-2 3.44,-0.97 5.96,-2.18 8.96,-3.79l173.27 -107.6 0.78 -26.89 -117.76 34.17 -70.62 39.98z"/>
   <g>
    <path class="fil9" d="M2485.3 10936.3l4.14 50.85c237.82,-19.81 475.6,-39.55 713.38,-59.36 3.3,-0.28 6.81,-0.85 10.02,-1.76 2.61,-0.71 4.79,-1.53 7.09,-2.98l169.98 -105.54 0.37 -13.13 -107.11 30.92 -71.58 40.6 -726.29 60.4z"/>
    <path class="fil10" d="M2493.08 10942.89l2.98 36.48c235.37,-19.6 470.77,-39.18 706.17,-58.76 10.44,-0.88 -0.74,1.11 8.65,-1.5 9.36,-2.64 -1.98,2.33 5.25,-2.18l164.87 -102.37 -95.36 27.66 -71.89 40.72 -720.67 59.95z"/>
    <path class="fil11" d="M2500.85 10949.47l1.79 22.1c232.99,-19.41 466,-38.76 698.99,-58.13 2.39,-0.2 5,-0.63 7.32,-1.28 1.25,-0.34 2.27,-0.65 3.38,-1.33l120.35 -74.74 -44.23 12.83 -72.52 41.08 -715.08 59.47z"/>
    <path class="fil12" d="M2508.6 10956.05l0.65 7.75c230.58,-19.21 461.18,-38.36 691.79,-57.54 9.64,-0.82 -2.44,1.33 7.49,-1.56l40.91 -25.39 -31.32 17.73 -709.52 59.01z"/>
   </g>
   <polygon class="fil13" points="3064.88,10860.32 2928.95,10871.64 2923.84,10809.23 3059.8,10797.91 "/>
   <polygon class="fil13" points="2714.49,10889.46 2578.53,10900.78 2573.45,10838.36 2709.38,10827.04 "/>
   <g>
    <path class="fil2" d="M3394.82 10758.85l2.95 35.85 -189.93 55.13 -731.85 60.87 -5.32 -65.19 731.86 -60.87 192.29 -25.79zm2.95 35.85l-2.95 -35.85 2.95 35.85z"/>
   </g>
   <g>
    <polygon class="fil14" points="3388.26,10766.98 3203.22,10791.81 2478.44,10852.1 2482.58,10902.94 3206.2,10842.85 3390.11,10789.42 "/>
    <polygon class="fil15" points="3381.71,10775.15 3203.9,10798.98 2486.21,10858.68 2489.19,10895.16 3205.21,10835.58 3382.45,10784.15 "/>
    <polygon class="fil16" points="3346.13,10787.18 3204.61,10806.13 2493.98,10865.26 2495.77,10887.36 3203.9,10828.46 "/>
    <polygon class="fil17" points="3251.6,10807.1 3205.29,10813.31 2501.73,10871.84 2502.38,10879.59 3202.57,10821.34 "/>
   </g>
   <polygon class="fil43" points="2976.73,10465.76 2840.8,10477.08 2845.88,10539.5 2981.84,10528.18 "/>
   <polygon class="fil44" points="2626.34,10494.9 2490.38,10506.22 2495.49,10568.63 2631.42,10557.31 "/>
   <polygon class="fil45" points="3083.15,10626.46 2947.22,10637.78 2952.3,10700.19 3088.26,10688.87 "/>
   <polygon class="fil46" points="2732.76,10655.59 2596.83,10666.91 2601.91,10729.33 2737.84,10718.04 "/>
   <polygon class="fil47" points="3035.94,10799.89 2900.01,10811.18 2905.09,10873.6 3041.05,10862.31 "/>
   <polygon class="fil48" points="2685.55,10829.03 2549.59,10840.35 2554.7,10902.77 2690.63,10891.45 "/>
   <polygon class="fil49" points="3108.57,10963.4 2972.64,10974.72 2977.72,11037.14 3113.68,11025.82 "/>
   <polygon class="fil50" points="2758.18,10992.54 2622.25,11003.86 2627.33,11066.28 2763.26,11054.95 "/>
   <g>
    <g style="clip-path:url(#id21)">
     <image x="2405.7" y="10381.6" width="1206.12" height="819.15" xlink:href="homenet_Images\homenet_ImgID10.png"/>
    </g>
    <polygon class="fil31 str3" points="3611.82,11105.36 2464.71,11200.75 2405.7,10477.02 3552.81,10381.6 "/>
   </g>
   <g>
    <g style="clip-path:url(#id22)">
     <image x="2349.57" y="10588.19" width="507.54" height="464.35" xlink:href="homenet_Images\homenet_ImgID11.png"/>
    </g>
   </g>
   <polygon class="fil32 str4" style="mask:url(#id23)" points="2816.29,10984.65 2412.44,11018.21 2383.7,10665.72 2787.55,10632.13 "/>
   <g>
    <g style="clip-path:url(#id25)">
     <image x="2669.84" y="10631.67" width="765.52" height="294.8" xlink:href="homenet_Images\homenet_ImgID12.png"/>
    </g>
   </g>
   <polygon class="fil13 str5" style="mask:url(#id26)" points="3323.23,10852.98 2708.16,10904.13 2693.92,10729.42 3308.99,10678.26 "/>
   <path class="fil3" d="M3874.74 9937.18l-189.73 -122.44c-6.27,-4.03 -9.79,-5.96 -14.57,-9.38 -4.78,-3.42 -11.77,-2.16 -18.57,-1.59l-711.45 59.17 -5.32 -65.19 699.35 -58.17c10.83,-0.9 22.39,-0.66 31.49,4.88 9.1,5.54 14.01,8.49 23.22,14.05l179.89 108.93 5.69 69.74z"/>
   <g>
    <path class="fil4" d="M3866.36 9923.18l-4.2 -51.49 -176.75 -107.02c-7.72,-4.68 -15.49,-9.33 -23.21,-14.04 -7.75,-4.71 -18.38,-4.6 -27.15,-3.86l-692.16 57.56 4.14 50.85 704.25 -58.59c7.97,-0.68 16.34,-2.13 23.38,2.89 4.59,3.29 9.5,6.16 14.27,9.22l177.43 114.48z"/>
    <path class="fil5" d="M3857.99 9909.22l-2.69 -33.28 -173.61 -105.08c-7.74,-4.71 -15.52,-9.37 -23.23,-14.08 -6.16,-3.74 -15.84,-3.4 -22.82,-2.83l-685 56.97 2.98 36.48 697.06 -57.99c10.07,-0.85 19.27,-2.16 28.17,4.23 4.49,3.2 9.34,6.01 13.96,8.99l165.18 106.59z"/>
    <path class="fil6" d="M3849.62 9895.24l-1.22 -15.04 -170.45 -103.19c-7.75,-4.71 -15.52,-9.36 -23.24,-14.07 -4.45,-2.7 -13.39,-2.21 -18.47,-1.82l-677.83 56.38 1.82 22.1 689.86 -57.37c20.17,-1.7 12.45,-9.1 32.94,5.53 4.39,3.15 9.16,5.88 13.7,8.83l152.89 98.65z"/>
    <path class="fil7" d="M3659.7 9774.37c-2.92,-1.76 -5.84,-3.51 -8.74,-5.27 -2.49,-1.54 -11.15,-1.03 -14.12,-0.77l-670.66 55.75 0.63 7.75 682.68 -56.8c3.55,-0.29 6.92,-0.54 10.21,-0.66z"/>
   </g>
   <path class="fil3" d="M3878.73 9986.11l-3.99 -48.93c-6.74,-3.99 -80.45,-51.88 -129.89,-83.8 -29.63,-19.13 -46.25,-22.87 -49.92,-25.08 -15.59,-5.48 -27.07,-6.72 -41.4,-5.53l-711.56 59.18 5.32 65.2c238.9,-19.87 477.77,-39.74 716.68,-59.61 5.06,-0.42 11.13,0.01 15.54,0.87 4.4,0.86 6.38,2.01 9.74,4.09l189.48 93.61z"/>
   <g>
    <path class="fil4" d="M3870.51 9974.03l-2.64 -32.58c-42.36,-25.22 -85.4,-55.18 -126.94,-82.02 -17.99,-11.6 -34.5,-15.91 -48.71,-24.48 -13.51,-4.74 -23.92,-6.16 -38.11,-5l-704.35 58.59 4.14 50.84c236.48,-19.69 472.98,-39.26 709.46,-59.01 5.59,-0.48 12.06,-0.11 17.54,0.96 4.99,0.97 7.26,2.62 11.52,4.71l178.09 87.99z"/>
    <path class="fil5" d="M3862.31 9961.91l-1.34 -16.17c-41.39,-24.85 -83.38,-54.05 -123.95,-80.24 -17.42,-11.26 -33.57,-15.66 -48.12,-24.03 -11.97,-4.08 -21.45,-5.39 -34.19,-4.34l-697.21 57.99 2.98 36.49c234.1,-19.49 468.19,-38.9 702.29,-58.42 6.24,-0.54 13.39,-0.14 19.52,1.08 5.79,1.14 8.42,2.89 13.33,5.33l166.69 82.31z"/>
    <path class="fil6" d="M3852.46 9949.03c-39.92,-24.29 -80.29,-52.26 -119.33,-77.48 -17.11,-11.04 -32.8,-15.35 -47.21,-23.47 -10.7,-3.57 -19.1,-4.71 -30.61,-3.77l-690.03 57.4 1.81 22.1c231.69,-19.27 463.37,-38.47 695.08,-57.8 6.9,-0.59 14.73,-0.17 21.51,1.17 6.49,1.27 9.62,3.23 15.12,5.96l153.66 75.89z"/>
    <path class="fil7" d="M3745.07 9887.95c-5.3,-3.49 -10.61,-6.96 -15.86,-10.36 -16.74,-10.78 -31.97,-15.01 -46.18,-22.9 -9.48,-3.09 -16.8,-4.05 -27.13,-3.17l-682.85 56.77 0.62 7.74c229.3,-19.06 458.61,-38.07 687.88,-57.19 18.01,-1.51 7.83,-1.82 23.52,1.27 7.18,1.42 10.81,3.55 16.94,6.56l43.06 21.28z"/>
   </g>
   <path class="fil8" d="M3686.01 9970.49l-731.86 60.86 -5.31 -65.19c240.17,-19.97 480.38,-39.95 720.55,-59.93 3.77,-0.31 7.97,-0.29 11.52,0.1 3.55,0.39 6.23,1.16 9.46,2.26l188.36 77.52 5.12 26.4 -121.71 -14.26 -76.13 -27.76z"/>
   <g>
    <path class="fil9" d="M3874.9 10004.21l-2.49 -12.91 -184.79 -76.03c-2.5,-1.05 -4.79,-1.48 -7.49,-1.79 -3.32,-0.37 -6.84,-0.34 -10.16,-0.06 -237.78,19.72 -475.56,39.55 -713.35,59.33l4.15 50.84 726.23 -60.43 76.4 28.03 111.5 13.02z"/>
    <path class="fil10" d="M3765.5 9984.13l98.68 11.57 -179.28 -73.77c-7.89,-3.23 4.17,-0.19 -5.56,-1.27 -9.65,-1.08 1.78,-0.94 -8.77,-0.06 -235.4,19.52 -470.8,39.15 -706.2,58.73l2.98 36.49 720.61 -59.98 77.54 28.29z"/>
    <path class="fil11" d="M3767.18 9977.09l45.84 5.36 -130.87 -53.85c-1.2,-0.51 -2.33,-0.65 -3.61,-0.79 -2.38,-0.26 -4.99,-0.23 -7.37,-0.03 -233.02,19.35 -466.01,38.76 -699.03,58.13l1.82 22.1 714.99 -59.46 78.23 28.54z"/>
    <path class="fil12" d="M3718.06 9951.5l-40.34 -16.51c-8.54,-0.97 3.86,-0.83 -5.96,0 -230.63,19.12 -461.24,38.33 -691.84,57.51l0.62 7.74 709.38 -59.01 28.14 10.27z"/>
   </g>
   <polygon class="fil13" points="3544.83,10002.77 3408.87,10014.09 3413.98,10076.5 3549.9,10065.18 "/>
   <polygon class="fil13" points="3194.41,10031.9 3058.48,10043.22 3063.56,10105.64 3199.51,10094.32 "/>
   <g>
    <path class="fil2" d="M3886.75 10048.37l-2.9 -35.86 -196.29 -23.01 -731.86 60.87 5.32 65.19 731.85 -60.87 193.88 -6.32zm-2.9 -35.86l2.9 35.86 -2.9 -35.86z"/>
   </g>
   <g>
    <polygon class="fil14" points="3878.96,10041.41 3877.14,10018.99 3687.79,9996.67 2963.49,10056.96 2967.63,10107.8 3692.56,10047.48 "/>
    <polygon class="fil15" points="3871.16,10034.46 3870.45,10025.46 3687.31,10003.96 2971.23,10063.54 2974.21,10100.02 3692.22,10040.3 "/>
    <polygon class="fil16" points="3834.05,10028.44 3687.2,10011.22 2979.01,10070.12 2980.82,10092.22 3691.91,10033.1 "/>
    <polygon class="fil17" points="3737.64,10024.39 3687.08,10018.46 2986.78,10076.7 2987.41,10084.45 3691.56,10025.89 "/>
   </g>
   <path class="fil18" d="M3892.87 10159.53l-167.34 152.13c-5.54,5.02 -8.69,7.51 -12.86,11.67 -4.16,4.16 -11.26,4.07 -18.06,4.64l-711.45 59.17 5.31 65.19 699.34 -58.16c10.84,-0.91 22.21,-3.05 30.29,-10.01 8.08,-6.97 12.44,-10.7 20.62,-17.7l159.83 -137.18 -5.68 -69.75z"/>
   <g>
    <path class="fil19" d="M3886.88 10174.7l-156.5 142.31c-4.2,3.8 -8.6,7.43 -12.63,11.44 -6.1,6.1 -14.58,6.04 -22.55,6.69l-704.28 58.59 4.15 50.84 692.15 -57.59c8.77,-0.74 19.3,-2.36 26.16,-8.26 6.87,-5.93 13.76,-11.83 20.66,-17.73l157.04 -134.77 -4.2 -51.52z"/>
    <path class="fil20" d="M3880.89 10189.91l-145.66 132.44c-4.11,3.71 -8.46,7.29 -12.37,11.2 -7.75,7.69 -17,7.95 -27.07,8.77l-697.09 57.99 2.98 36.49 684.95 -57c6.98,-0.6 16.6,-1.85 22.04,-6.56 6.9,-5.93 13.79,-11.8 20.66,-17.73l154.28 -132.38 -2.72 -33.22z"/>
    <path class="fil21" d="M3874.9 10205.08l-134.82 122.6c-4.03,3.66 -8.31,7.15 -12.14,10.98 -17.82,17.76 -11.41,9.16 -31.55,10.84l-689.92 57.39 1.79 22.1 677.77 -56.37c5.08,-0.43 14.02,-1.45 17.96,-4.82 6.87,-5.93 13.76,-11.83 20.66,-17.74l151.47 -129.99 -1.22 -14.99z"/>
    <path class="fil22" d="M3707.03 10355.68c-3.21,0.43 -6.53,0.71 -10.05,1.02l-682.76 56.78 0.65 7.74 670.57 -55.81c2.98,-0.22 11.63,-1.16 13.84,-3.09 2.58,-2.21 5.17,-4.42 7.75,-6.64z"/>
   </g>
   <path class="fil18" d="M3888.88 10110.6l3.99 48.93c-6,5.05 -70.97,64.47 -114.57,104.13 -26.13,23.77 -41.92,30.21 -45.19,32.99 -14.49,7.98 -25.61,11.1 -39.94,12.29l-711.56 59.18 -5.32 -65.19c238.91,-19.87 477.78,-39.74 716.68,-59.6 5.07,-0.43 10.98,-1.86 15.19,-3.43 4.21,-1.58 5.98,-3.04 8.95,-5.65l171.77 -123.65z"/>
   <g>
    <path class="fil19" d="M3882.73 10123.91l-161.4 116.19c-3.83,2.78 -5.88,4.73 -10.61,6.55 -5.22,1.96 -11.55,3.4 -17.14,3.86 -236.51,19.8 -473.01,39.32 -709.52,59.01l4.14 50.84 704.39 -58.58c14.18,-1.2 24.2,-4.32 36.14,-10.84 13.05,-11.12 28.94,-18.25 44.72,-32.6 36.71,-33.39 74.22,-69.88 111.92,-101.94l-2.64 -32.49z"/>
    <path class="fil20" d="M3876.58 10137.22l-151.03 108.72c-4.42,3.18 -6.83,5.36 -12.28,7.43 -5.85,2.22 -12.85,3.81 -19.09,4.32 -234.1,19.6 -468.22,38.92 -702.35,58.41l2.98 36.49 697.18 -57.99c12.71,-1.08 21.85,-3.92 32.94,-9.93 12.91,-10.61 28.37,-17.76 43.66,-31.67 35.89,-32.59 72.47,-68.14 109.32,-99.67l-1.33 -16.11z"/>
    <path class="fil21" d="M3868.38 10152.03l-138.63 99.75c-4.96,3.58 -7.83,6.02 -13.93,8.35 -14.38,5.42 -3.77,3.29 -21.02,4.73 -231.74,19.41 -463.48,38.56 -695.19,57.83l1.78 22.1 690 -57.37c11.5,-0.96 19.58,-3.46 29.54,-8.77 12.8,-10.35 27.83,-17.33 42.81,-30.98 34.36,-31.24 69.37,-65.14 104.64,-95.64z"/>
    <path class="fil22" d="M3772.4 10229.97l-38.42 27.69c-5.5,3.94 -8.85,6.64 -15.6,9.19 -14.98,5.67 -5.05,3.69 -22.98,5.19 -229.33,19.21 -458.69,38.16 -688.05,57.23l0.65 7.74 682.8 -56.8c10.3,-0.85 17.36,-2.98 26.16,-7.6 12.68,-10.1 27.26,-16.91 41.96,-30.27 4.48,-4.09 8.96,-8.2 13.48,-12.37z"/>
   </g>
   <path class="fil8" d="M3701.28 10157.86l-731.85 60.86 5.31 65.2c240.18,-19.98 480.38,-39.96 720.56,-59.93 3.77,-0.31 7.91,-1.03 11.35,-2 3.44,-0.97 5.96,-2.18 8.96,-3.79l173.27 -107.6 0.78 -26.89 -117.76 34.17 -70.62 39.98z"/>
   <g>
    <path class="fil9" d="M2977.19 10225.31l4.14 50.85c237.82,-19.81 475.6,-39.55 713.38,-59.36 3.3,-0.28 6.81,-0.85 10.02,-1.76 2.61,-0.71 4.79,-1.53 7.09,-2.98l169.98 -105.54 0.37 -13.13 -107.11 30.92 -71.58 40.6 -726.29 60.4z"/>
    <path class="fil10" d="M2984.97 10231.9l2.98 36.48c235.37,-19.6 470.77,-39.18 706.17,-58.76 10.44,-0.88 -0.74,1.11 8.65,-1.5 9.36,-2.64 -1.98,2.33 5.25,-2.18l164.87 -102.37 -95.36 27.66 -71.89 40.72 -720.67 59.95z"/>
    <path class="fil11" d="M2992.74 10238.48l1.79 22.1c232.99,-19.41 466,-38.76 698.99,-58.13 2.39,-0.2 5,-0.63 7.32,-1.28 1.25,-0.34 2.27,-0.65 3.38,-1.33l120.35 -74.74 -44.23 12.83 -72.52 41.08 -715.08 59.47z"/>
    <path class="fil12" d="M3000.49 10245.06l0.65 7.75c230.58,-19.21 461.18,-38.36 691.79,-57.54 9.64,-0.82 -2.44,1.33 7.49,-1.56l40.91 -25.39 -31.32 17.73 -709.52 59.01z"/>
   </g>
   <polygon class="fil13" points="3556.77,10149.33 3420.84,10160.65 3415.73,10098.24 3551.69,10086.92 "/>
   <polygon class="fil13" points="3206.38,10178.47 3070.42,10189.79 3065.34,10127.37 3201.27,10116.05 "/>
   <g>
    <path class="fil2" d="M3886.71 10047.86l2.95 35.85 -189.93 55.13 -731.85 60.87 -5.32 -65.19 731.86 -60.87 192.29 -25.79zm2.95 35.85l-2.95 -35.85 2.95 35.85z"/>
   </g>
   <g>
    <polygon class="fil14" points="3880.15,10055.99 3695.11,10080.82 2970.33,10141.11 2974.47,10191.95 3698.09,10131.86 3882,10078.43 "/>
    <polygon class="fil15" points="3873.6,10064.16 3695.79,10087.99 2978.1,10147.69 2981.08,10184.17 3697.1,10124.59 3874.34,10073.16 "/>
    <polygon class="fil16" points="3838.02,10076.19 3696.5,10095.14 2985.87,10154.27 2987.66,10176.37 3695.79,10117.47 "/>
    <polygon class="fil17" points="3743.49,10096.11 3697.18,10102.32 2993.62,10160.85 2994.27,10168.6 3694.46,10110.35 "/>
   </g>
   <polygon class="fil43" points="3468.62,9754.77 3332.69,9766.09 3337.77,9828.51 3473.73,9817.19 "/>
   <polygon class="fil51" points="3118.23,9783.91 2982.27,9795.23 2987.38,9857.64 3123.31,9846.32 "/>
   <polygon class="fil45" points="3575.04,9915.47 3439.11,9926.79 3444.19,9989.2 3580.15,9977.88 "/>
   <polygon class="fil46" points="3224.65,9944.6 3088.72,9955.92 3093.8,10018.34 3229.73,10007.05 "/>
   <polygon class="fil47" points="3527.83,10088.9 3391.9,10100.19 3396.98,10162.61 3532.94,10151.32 "/>
   <polygon class="fil52" points="3177.44,10118.04 3041.48,10129.36 3046.59,10191.78 3182.52,10180.46 "/>
   <polygon class="fil49" points="3600.46,10252.41 3464.53,10263.73 3469.61,10326.15 3605.57,10314.83 "/>
   <polygon class="fil50" points="3250.07,10281.55 3114.14,10292.87 3119.22,10355.29 3255.15,10343.96 "/>
   <g>
    <g style="clip-path:url(#id28)">
     <image x="2897.59" y="9670.61" width="1206.12" height="819.15" xlink:href="homenet_Images\homenet_ImgID13.png"/>
    </g>
    <polygon class="fil31 str6" points="4103.71,10394.37 2956.6,10489.76 2897.59,9766.03 4044.7,9670.61 "/>
   </g>
   <g>
    <g style="clip-path:url(#id29)">
     <image x="2841.46" y="9877.2" width="507.54" height="464.35" xlink:href="homenet_Images\homenet_ImgID14.png"/>
    </g>
   </g>
   <polygon class="fil32 str4" style="mask:url(#id30)" points="3308.18,10273.66 2904.33,10307.22 2875.59,9954.73 3279.44,9921.14 "/>
   <g>
    <g style="clip-path:url(#id32)">
     <image x="3161.73" y="9920.68" width="765.52" height="294.8" xlink:href="homenet_Images\homenet_ImgID15.png"/>
    </g>
   </g>
   <polygon class="fil13 str5" style="mask:url(#id33)" points="3815.12,10141.99 3200.05,10193.14 3185.81,10018.43 3800.88,9967.27 "/>
   <path class="fil3" d="M3143.96 9260.55l-189.73 -122.44c-6.27,-4.03 -9.79,-5.96 -14.57,-9.38 -4.78,-3.42 -11.77,-2.16 -18.57,-1.59l-711.45 59.17 -5.32 -65.19 699.35 -58.17c10.83,-0.9 22.39,-0.66 31.49,4.88 9.1,5.54 14.01,8.49 23.22,14.05l179.89 108.93 5.69 69.74z"/>
   <g>
    <path class="fil4" d="M3135.58 9246.55l-4.2 -51.49 -176.75 -107.02c-7.72,-4.68 -15.49,-9.33 -23.21,-14.04 -7.75,-4.71 -18.38,-4.6 -27.15,-3.86l-692.16 57.56 4.14 50.85 704.25 -58.59c7.97,-0.68 16.34,-2.13 23.38,2.89 4.59,3.29 9.5,6.16 14.27,9.22l177.43 114.48z"/>
    <path class="fil5" d="M3127.21 9232.59l-2.69 -33.28 -173.61 -105.08c-7.74,-4.71 -15.52,-9.37 -23.23,-14.08 -6.16,-3.74 -15.84,-3.4 -22.82,-2.83l-685 56.97 2.98 36.48 697.06 -57.99c10.07,-0.85 19.27,-2.16 28.17,4.23 4.49,3.2 9.34,6.01 13.96,8.99l165.18 106.59z"/>
    <path class="fil6" d="M3118.84 9218.61l-1.22 -15.04 -170.45 -103.19c-7.75,-4.71 -15.52,-9.36 -23.24,-14.07 -4.45,-2.7 -13.39,-2.21 -18.47,-1.82l-677.83 56.38 1.82 22.1 689.86 -57.37c20.17,-1.7 12.45,-9.1 32.94,5.53 4.39,3.15 9.16,5.88 13.7,8.83l152.89 98.65z"/>
    <path class="fil7" d="M2928.92 9097.74c-2.92,-1.76 -5.84,-3.51 -8.74,-5.27 -2.49,-1.54 -11.15,-1.03 -14.12,-0.77l-670.66 55.75 0.63 7.75 682.68 -56.8c3.55,-0.29 6.92,-0.54 10.21,-0.66z"/>
   </g>
   <path class="fil3" d="M3147.95 9309.48l-3.99 -48.93c-6.74,-3.99 -80.45,-51.88 -129.89,-83.8 -29.63,-19.13 -46.25,-22.87 -49.92,-25.08 -15.59,-5.48 -27.07,-6.72 -41.4,-5.53l-711.56 59.18 5.32 65.2c238.9,-19.87 477.77,-39.74 716.68,-59.61 5.06,-0.42 11.13,0.01 15.54,0.87 4.4,0.86 6.38,2.01 9.74,4.09l189.48 93.61z"/>
   <g>
    <path class="fil4" d="M3139.73 9297.4l-2.64 -32.58c-42.36,-25.22 -85.4,-55.18 -126.94,-82.02 -17.99,-11.6 -34.5,-15.91 -48.71,-24.48 -13.51,-4.74 -23.92,-6.16 -38.11,-5l-704.35 58.59 4.14 50.84c236.48,-19.69 472.98,-39.26 709.46,-59.01 5.59,-0.48 12.06,-0.11 17.54,0.96 4.99,0.97 7.26,2.62 11.52,4.71l178.09 87.99z"/>
    <path class="fil5" d="M3131.53 9285.28l-1.34 -16.17c-41.39,-24.85 -83.38,-54.05 -123.95,-80.24 -17.42,-11.26 -33.57,-15.66 -48.12,-24.03 -11.97,-4.08 -21.45,-5.39 -34.19,-4.34l-697.21 57.99 2.98 36.49c234.1,-19.49 468.19,-38.9 702.29,-58.42 6.24,-0.54 13.39,-0.14 19.52,1.08 5.79,1.14 8.42,2.89 13.33,5.33l166.69 82.31z"/>
    <path class="fil6" d="M3121.68 9272.4c-39.92,-24.29 -80.29,-52.26 -119.33,-77.48 -17.11,-11.04 -32.8,-15.35 -47.21,-23.47 -10.7,-3.57 -19.1,-4.71 -30.61,-3.77l-690.03 57.4 1.81 22.1c231.69,-19.27 463.37,-38.47 695.08,-57.8 6.9,-0.59 14.73,-0.17 21.51,1.17 6.49,1.27 9.62,3.23 15.12,5.96l153.66 75.89z"/>
    <path class="fil7" d="M3014.29 9211.32c-5.3,-3.49 -10.61,-6.96 -15.86,-10.36 -16.74,-10.78 -31.97,-15.01 -46.18,-22.9 -9.48,-3.09 -16.8,-4.05 -27.13,-3.17l-682.85 56.77 0.62 7.74c229.3,-19.06 458.61,-38.07 687.88,-57.19 18.01,-1.51 7.83,-1.82 23.52,1.27 7.18,1.42 10.81,3.55 16.94,6.56l43.06 21.28z"/>
   </g>
   <path class="fil8" d="M2955.23 9293.86l-731.86 60.86 -5.31 -65.19c240.17,-19.97 480.38,-39.95 720.55,-59.93 3.77,-0.31 7.97,-0.29 11.52,0.1 3.55,0.39 6.23,1.16 9.46,2.26l188.36 77.52 5.12 26.4 -121.71 -14.26 -76.13 -27.76z"/>
   <g>
    <path class="fil9" d="M3144.12 9327.58l-2.49 -12.91 -184.79 -76.03c-2.5,-1.05 -4.79,-1.48 -7.49,-1.79 -3.32,-0.37 -6.84,-0.34 -10.16,-0.06 -237.78,19.72 -475.56,39.55 -713.35,59.33l4.15 50.84 726.23 -60.43 76.4 28.03 111.5 13.02z"/>
    <path class="fil10" d="M3034.72 9307.5l98.68 11.57 -179.28 -73.77c-7.89,-3.23 4.17,-0.19 -5.56,-1.27 -9.65,-1.08 1.78,-0.94 -8.77,-0.06 -235.4,19.52 -470.8,39.15 -706.2,58.73l2.98 36.49 720.61 -59.98 77.54 28.29z"/>
    <path class="fil11" d="M3036.4 9300.46l45.84 5.36 -130.87 -53.85c-1.2,-0.51 -2.33,-0.65 -3.61,-0.79 -2.38,-0.26 -4.99,-0.23 -7.37,-0.03 -233.02,19.35 -466.01,38.76 -699.03,58.13l1.82 22.1 714.99 -59.46 78.23 28.54z"/>
    <path class="fil12" d="M2987.28 9274.87l-40.34 -16.51c-8.54,-0.97 3.86,-0.83 -5.96,0 -230.63,19.12 -461.24,38.33 -691.84,57.51l0.62 7.74 709.38 -59.01 28.14 10.27z"/>
   </g>
   <polygon class="fil13" points="2814.05,9326.14 2678.09,9337.46 2683.2,9399.87 2819.12,9388.55 "/>
   <polygon class="fil13" points="2463.63,9355.27 2327.7,9366.59 2332.78,9429.01 2468.73,9417.69 "/>
   <g>
    <path class="fil2" d="M3155.97 9371.74l-2.9 -35.86 -196.29 -23.01 -731.86 60.87 5.32 65.19 731.85 -60.87 193.88 -6.32zm-2.9 -35.86l2.9 35.86 -2.9 -35.86z"/>
   </g>
   <g>
    <polygon class="fil14" points="3148.18,9364.78 3146.36,9342.36 2957.01,9320.04 2232.71,9380.33 2236.85,9431.17 2961.78,9370.85 "/>
    <polygon class="fil15" points="3140.38,9357.83 3139.67,9348.83 2956.53,9327.33 2240.45,9386.91 2243.43,9423.39 2961.44,9363.67 "/>
    <polygon class="fil16" points="3103.27,9351.81 2956.42,9334.59 2248.23,9393.49 2250.04,9415.59 2961.13,9356.47 "/>
    <polygon class="fil17" points="3006.86,9347.76 2956.3,9341.83 2256,9400.07 2256.63,9407.82 2960.78,9349.26 "/>
   </g>
   <path class="fil18" d="M3162.09 9482.9l-167.34 152.13c-5.54,5.02 -8.69,7.51 -12.86,11.67 -4.16,4.16 -11.26,4.07 -18.06,4.64l-711.45 59.17 5.31 65.19 699.34 -58.16c10.84,-0.91 22.21,-3.05 30.29,-10.01 8.08,-6.97 12.44,-10.7 20.62,-17.7l159.83 -137.18 -5.68 -69.75z"/>
   <g>
    <path class="fil19" d="M3156.1 9498.07l-156.5 142.31c-4.2,3.8 -8.6,7.43 -12.63,11.44 -6.1,6.1 -14.58,6.04 -22.55,6.69l-704.28 58.59 4.15 50.84 692.15 -57.59c8.77,-0.74 19.3,-2.36 26.16,-8.26 6.87,-5.93 13.76,-11.83 20.66,-17.73l157.04 -134.77 -4.2 -51.52z"/>
    <path class="fil20" d="M3150.11 9513.28l-145.66 132.44c-4.11,3.71 -8.46,7.29 -12.37,11.2 -7.75,7.69 -17,7.95 -27.07,8.77l-697.09 57.99 2.98 36.49 684.95 -57c6.98,-0.6 16.6,-1.85 22.04,-6.56 6.9,-5.93 13.79,-11.8 20.66,-17.73l154.28 -132.38 -2.72 -33.22z"/>
    <path class="fil21" d="M3144.12 9528.45l-134.82 122.6c-4.03,3.66 -8.31,7.15 -12.14,10.98 -17.82,17.76 -11.41,9.16 -31.55,10.84l-689.92 57.39 1.79 22.1 677.77 -56.37c5.08,-0.43 14.02,-1.45 17.96,-4.82 6.87,-5.93 13.76,-11.83 20.66,-17.74l151.47 -129.99 -1.22 -14.99z"/>
    <path class="fil22" d="M2976.25 9679.05c-3.21,0.43 -6.53,0.71 -10.05,1.02l-682.76 56.78 0.65 7.74 670.57 -55.81c2.98,-0.22 11.63,-1.16 13.84,-3.09 2.58,-2.21 5.17,-4.42 7.75,-6.64z"/>
   </g>
   <path class="fil18" d="M3158.1 9433.97l3.99 48.93c-6,5.05 -70.97,64.47 -114.57,104.13 -26.13,23.77 -41.92,30.21 -45.19,32.99 -14.49,7.98 -25.61,11.1 -39.94,12.29l-711.56 59.18 -5.32 -65.19c238.91,-19.87 477.78,-39.74 716.68,-59.6 5.07,-0.43 10.98,-1.86 15.19,-3.43 4.21,-1.58 5.98,-3.04 8.95,-5.65l171.77 -123.65z"/>
   <g>
    <path class="fil19" d="M3151.95 9447.28l-161.4 116.19c-3.83,2.78 -5.88,4.73 -10.61,6.55 -5.22,1.96 -11.55,3.4 -17.14,3.86 -236.51,19.8 -473.01,39.32 -709.52,59.01l4.14 50.84 704.39 -58.58c14.18,-1.2 24.2,-4.32 36.14,-10.84 13.05,-11.12 28.94,-18.25 44.72,-32.6 36.71,-33.39 74.22,-69.88 111.92,-101.94l-2.64 -32.49z"/>
    <path class="fil20" d="M3145.8 9460.59l-151.03 108.72c-4.42,3.18 -6.83,5.36 -12.28,7.43 -5.85,2.22 -12.85,3.81 -19.09,4.32 -234.1,19.6 -468.22,38.92 -702.35,58.41l2.98 36.49 697.18 -57.99c12.71,-1.08 21.85,-3.92 32.94,-9.93 12.91,-10.61 28.37,-17.76 43.66,-31.67 35.89,-32.59 72.47,-68.14 109.32,-99.67l-1.33 -16.11z"/>
    <path class="fil21" d="M3137.6 9475.4l-138.63 99.75c-4.96,3.58 -7.83,6.02 -13.93,8.35 -14.38,5.42 -3.77,3.29 -21.02,4.73 -231.74,19.41 -463.48,38.56 -695.19,57.83l1.78 22.1 690 -57.37c11.5,-0.96 19.58,-3.46 29.54,-8.77 12.8,-10.35 27.83,-17.33 42.81,-30.98 34.36,-31.24 69.37,-65.14 104.64,-95.64z"/>
    <path class="fil22" d="M3041.62 9553.34l-38.42 27.69c-5.5,3.94 -8.85,6.64 -15.6,9.19 -14.98,5.67 -5.05,3.69 -22.98,5.19 -229.33,19.21 -458.69,38.16 -688.05,57.23l0.65 7.74 682.8 -56.8c10.3,-0.85 17.36,-2.98 26.16,-7.6 12.68,-10.1 27.26,-16.91 41.96,-30.27 4.48,-4.09 8.96,-8.2 13.48,-12.37z"/>
   </g>
   <path class="fil8" d="M2970.5 9481.23l-731.85 60.86 5.31 65.2c240.18,-19.98 480.38,-39.96 720.56,-59.93 3.77,-0.31 7.91,-1.03 11.35,-2 3.44,-0.97 5.96,-2.18 8.96,-3.79l173.27 -107.6 0.78 -26.89 -117.76 34.17 -70.62 39.98z"/>
   <g>
    <path class="fil9" d="M2246.41 9548.68l4.14 50.85c237.82,-19.81 475.6,-39.55 713.38,-59.36 3.3,-0.28 6.81,-0.85 10.02,-1.76 2.61,-0.71 4.79,-1.53 7.09,-2.98l169.98 -105.54 0.37 -13.13 -107.11 30.92 -71.58 40.6 -726.29 60.4z"/>
    <path class="fil10" d="M2254.19 9555.27l2.98 36.48c235.37,-19.6 470.77,-39.18 706.17,-58.76 10.44,-0.88 -0.74,1.11 8.65,-1.5 9.36,-2.64 -1.98,2.33 5.25,-2.18l164.87 -102.37 -95.36 27.66 -71.89 40.72 -720.67 59.95z"/>
    <path class="fil11" d="M2261.96 9561.85l1.79 22.1c232.99,-19.41 466,-38.76 698.99,-58.13 2.39,-0.2 5,-0.63 7.32,-1.28 1.25,-0.34 2.27,-0.65 3.38,-1.33l120.35 -74.74 -44.23 12.83 -72.52 41.08 -715.08 59.47z"/>
    <path class="fil12" d="M2269.71 9568.43l0.65 7.75c230.58,-19.21 461.18,-38.36 691.79,-57.54 9.64,-0.82 -2.44,1.33 7.49,-1.56l40.91 -25.39 -31.32 17.73 -709.52 59.01z"/>
   </g>
   <polygon class="fil13" points="2825.99,9472.7 2690.06,9484.02 2684.95,9421.61 2820.91,9410.29 "/>
   <polygon class="fil13" points="2475.6,9501.84 2339.64,9513.16 2334.56,9450.74 2470.49,9439.42 "/>
   <g>
    <path class="fil2" d="M3155.93 9371.23l2.95 35.85 -189.93 55.13 -731.85 60.87 -5.32 -65.19 731.86 -60.87 192.29 -25.79zm2.95 35.85l-2.95 -35.85 2.95 35.85z"/>
   </g>
   <g>
    <polygon class="fil14" points="3149.37,9379.36 2964.33,9404.19 2239.55,9464.48 2243.69,9515.32 2967.31,9455.23 3151.22,9401.8 "/>
    <polygon class="fil15" points="3142.82,9387.53 2965.01,9411.36 2247.32,9471.06 2250.3,9507.54 2966.32,9447.96 3143.56,9396.53 "/>
    <polygon class="fil16" points="3107.24,9399.56 2965.72,9418.51 2255.09,9477.64 2256.88,9499.74 2965.01,9440.84 "/>
    <polygon class="fil17" points="3012.71,9419.48 2966.4,9425.69 2262.84,9484.22 2263.49,9491.97 2963.68,9433.72 "/>
   </g>
   <polygon class="fil43" points="2737.84,9078.14 2601.91,9089.46 2606.99,9151.88 2742.95,9140.56 "/>
   <polygon class="fil53" points="2387.45,9107.28 2251.49,9118.6 2256.6,9181.01 2392.53,9169.69 "/>
   <polygon class="fil54" points="2844.26,9238.84 2708.33,9250.16 2713.41,9312.57 2849.37,9301.25 "/>
   <polygon class="fil46" points="2493.87,9267.97 2357.94,9279.29 2363.02,9341.71 2498.95,9330.42 "/>
   <polygon class="fil47" points="2797.05,9412.27 2661.12,9423.56 2666.2,9485.98 2802.16,9474.69 "/>
   <polygon class="fil55" points="2446.66,9441.41 2310.7,9452.73 2315.81,9515.15 2451.74,9503.83 "/>
   <polygon class="fil49" points="2869.68,9575.78 2733.75,9587.1 2738.83,9649.52 2874.79,9638.2 "/>
   <polygon class="fil50" points="2519.29,9604.92 2383.36,9616.24 2388.44,9678.66 2524.37,9667.33 "/>
   <g>
    <g style="clip-path:url(#id35)">
     <image x="2166.81" y="8993.98" width="1206.12" height="819.15" xlink:href="homenet_Images\homenet_ImgID16.png"/>
    </g>
    <polygon class="fil31 str6" points="3372.93,9717.74 2225.82,9813.13 2166.81,9089.4 3313.92,8993.98 "/>
   </g>
   <g>
    <g style="clip-path:url(#id36)">
     <image x="2110.68" y="9200.57" width="507.54" height="464.35" xlink:href="homenet_Images\homenet_ImgID17.png"/>
    </g>
   </g>
   <polygon class="fil32 str4" style="mask:url(#id37)" points="2577.4,9597.03 2173.55,9630.59 2144.81,9278.1 2548.66,9244.51 "/>
   <g>
    <g style="clip-path:url(#id39)">
     <image x="2430.95" y="9244.05" width="765.52" height="294.8" xlink:href="homenet_Images\homenet_ImgID18.png"/>
    </g>
   </g>
   <polygon class="fil13 str5" style="mask:url(#id40)" points="3084.34,9465.36 2469.27,9516.51 2455.03,9341.8 3070.1,9290.64 "/>
  </g>
 </g>
</svg>
