<svg aria-hidden="true" style="position:absolute;width:0;height:0" xmlns="http://www.w3.org/2000/svg" overflow="hidden"><defs><symbol id="icon-check" viewBox="0 0 42 32">
<path stroke-linejoin="miter" stroke-linecap="butt" stroke-miterlimit="4" stroke-width="0.64" d="M6.262 15.206l-0.221-0.211-0.221 0.208-3.085 2.925 0.243 0.234 11.408 10.88 0.221-0.211 24.256-23.139-0.243-0.23-3.043-2.902-0.221 0.211-20.97 19.987-8.125-7.75z"></path>
</symbol><symbol id="icon-email" viewBox="0 0 32 32"><path d="M26.667 5.333H5.334A2.662 2.662 0 002.682 8l-.014 16c0 1.467 1.2 2.667 2.667 2.667h21.333c1.467 0 2.667-1.2 2.667-2.667V8c0-1.467-1.2-2.667-2.667-2.667zm-.534 5.668l-9.426 5.892a1.343 1.343 0 01-1.421-.004l.006.003L5.866 11A1.133 1.133 0 117.07 9.083l-.004-.003 8.933 5.586 8.933-5.588a1.132 1.132 0 111.204 1.916l-.005.003z"/></symbol><symbol id="icon-person" viewBox="0 0 32 32"><path d="M16 16a5.333 5.333 0 100-10.666A5.333 5.333 0 1016 16zm0 2.667c-3.561 0-10.667 1.787-10.667 5.333v1.333c0 .732.599 1.333 1.333 1.333h18.667c.732 0 1.333-.601 1.333-1.333V24c0-3.547-7.108-5.333-10.667-5.333z"/></symbol><symbol id="icon-phone" viewBox="0 0 32 32"><path d="M24.882 19.774l-3.268-.373a2.555 2.555 0 00-2.11.732l-2.368 2.368c-3.669-1.894-6.585-4.81-8.427-8.372l-.051-.108 2.382-2.377a2.552 2.552 0 00.731-2.122l.001.012-.373-3.243a2.578 2.578 0 00-2.557-2.276H6.613c-1.454 0-2.663 1.209-2.574 2.663.683 10.987 9.47 19.76 20.444 20.443 1.452.089 2.663-1.12 2.663-2.574v-2.226-.012a2.549 2.549 0 00-2.253-2.532l-.012-.001z"/></symbol><symbol id="icon-send" viewBox="0 0 32 32"><path d="M32 0L0 18l10.227 3.787L26 7 14.003 23.187l.009.003-.012-.003V32l5.735-6.691L27.002 28l4.999-28z"/></symbol><symbol id="icon-close" viewBox="0 0 32 32"><path d="M32 3.223L28.777 0 16 12.777 3.223 0 0 3.223 12.777 16 0 28.777 3.223 32 16 19.223 28.777 32 32 28.777 19.223 16 32 3.223z"/></symbol><symbol id="icon-envelope" viewBox="0 0 43 32"><path d="M38.667 0H4C1.795 0 0 1.795 0 4v24c0 2.205 1.795 4 4 4h34.667c2.205 0 4-1.795 4-4V4c0-2.205-1.795-4-4-4zm0 2.667c.181 0 .355.037.512.104L21.334 18.238 3.489 2.771c.151-.065.327-.104.512-.104h34.667zm0 26.666H4A1.333 1.333 0 012.667 28V5.587l17.792 15.421c.233.203.539.327.875.327s.642-.124.876-.328l-.002.001L40 5.587V28c0 .736-.597 1.333-1.333 1.333z"/></symbol><symbol id="icon-facebook" viewBox="0 0 32 32"><path d="M21.328 5.312h2.923V.224A36.483 36.483 0 0020.143 0h-.156.008c-4.213 0-7.099 2.65-7.099 7.52V12H8.25v5.688h4.646V32h5.699V17.69h4.459l.707-5.688h-5.168V8.08c0-1.643.443-2.768 2.734-2.768z"/></symbol><symbol id="icon-instagram" viewBox="0 0 32 32"><path d="M31.968 9.408c-.074-1.701-.349-2.869-.742-3.882a7.839 7.839 0 00-1.85-2.837l-.001-.001A7.906 7.906 0 0026.597.861l-.054-.018C25.524.449 24.362.176 22.661.101 20.949.019 20.405 0 16.059 0c-4.344 0-4.888.019-6.595.094-1.699.074-2.869.349-3.88.742a7.847 7.847 0 00-2.839 1.85l-.001.001A7.9 7.9 0 00.919 5.465l-.018.054C.506 6.538.232 7.7.157 9.401c-.082 1.712-.101 2.256-.101 6.602 0 4.344.019 4.888.094 6.595.075 1.701.35 2.869.744 3.882a7.915 7.915 0 001.849 2.837l.001.001c.8.813 1.77 1.443 2.832 1.843 1.019.395 2.182.67 3.882.744 1.707.075 2.251.094 6.595.094 4.346 0 4.89-.019 6.595-.094 1.701-.074 2.869-.349 3.882-.742a8.237 8.237 0 004.664-4.628l.019-.055c.394-1.019.669-2.182.744-3.882.075-1.707.093-2.251.093-6.595s-.006-4.888-.08-6.595zm-2.88 13.066c-.07 1.563-.333 2.406-.55 2.97a5.341 5.341 0 01-3.004 3.024l-.036.012c-.56.219-1.411.482-2.968.55-1.688.075-2.194.094-6.464.094-4.269 0-4.782-.019-6.464-.094-1.563-.069-2.406-.331-2.97-.55a4.953 4.953 0 01-1.836-1.192l-.001-.001a4.978 4.978 0 01-1.184-1.803L3.6 25.45c-.218-.563-.48-1.413-.549-2.97-.075-1.688-.094-2.195-.094-6.464s.019-4.784.094-6.464c.069-1.563.331-2.406.549-2.97a4.897 4.897 0 011.198-1.837l.002-.002a4.972 4.972 0 011.806-1.182l.034-.011c.56-.219 1.411-.48 2.968-.55 1.688-.074 2.195-.093 6.464-.093 4.275 0 4.782.019 6.464.093 1.563.069 2.406.331 2.97.55a4.91 4.91 0 011.837 1.194c.531.52.938 1.144 1.195 1.84.218.56.48 1.411.549 2.968.075 1.688.094 2.194.094 6.464 0 4.269-.019 4.768-.094 6.458z"/><path d="M16.059 7.782a8.223 8.223 0 00-8.219 8.221 8.223 8.223 0 0016.442.008v-.009a8.223 8.223 0 00-8.221-8.221zm0 13.552a5.333 5.333 0 01.001-10.666h.001a5.334 5.334 0 110 10.668zM26.525 7.458a1.92 1.92 0 01-3.84 0 1.92 1.92 0 013.84 0z"/></symbol><symbol id="icon-linkedin" viewBox="0 0 32 32"><path d="M31.992 32H32V20.262c0-5.741-1.237-10.163-7.947-10.163-3.227 0-5.392 1.77-6.277 3.45h-.093v-2.914h-6.365v21.363h6.627V21.42c0-2.786.528-5.48 3.978-5.48 3.398 0 3.448 3.179 3.448 5.658V32h6.621zM.528 10.635h6.635V32H.528V10.635zM3.843 0A3.843 3.843 0 000 3.843c0 2.12 1.722 3.878 3.843 3.878 2.12 0 3.842-1.757 3.842-3.878S5.965.002 3.844 0z"/></symbol><symbol id="icon-smartphone" viewBox="0 0 20 32"><path d="M17 0H3C1.346 0 0 1.346 0 3v26c0 1.654 1.346 3 3 3h14c1.654 0 3-1.346 3-3V3c0-1.654-1.346-3-3-3zM3 2h14a1 1 0 011 1v21H2V3a1 1 0 011-1zm14 28H3a1 1 0 01-1-1v-3h16v3a1 1 0 01-1 1z"/><path d="M4.708 27.478a.889.889 0 01.001 1.319l-.001.001a1.048 1.048 0 01-1.417 0l.001.001a.889.889 0 01-.001-1.319l.001-.001a1.048 1.048 0 011.417 0l-.001-.001z"/></symbol><symbol id="icon-twitter" viewBox="0 0 32 32"><path d="M32 6.078c-1.1.493-2.376.857-3.713 1.028l-.068.007a6.556 6.556 0 002.873-3.579l.013-.046a12.88 12.88 0 01-4.076 1.573l-.084.014A6.558 6.558 0 0015.6 9.557v.004c0 .52.043 1.021.152 1.496-5.454-.266-10.28-2.88-13.522-6.861a6.524 6.524 0 00-.902 3.313v.001a6.57 6.57 0 002.914 5.451 6.453 6.453 0 01-2.994-.823l.033.017v.072a6.592 6.592 0 005.213 6.44l.043.008a6.403 6.403 0 01-1.662.215h-.061.003c-.419 0-.843-.024-1.242-.112.85 2.598 3.261 4.509 6.13 4.57a13.093 13.093 0 01-8.122 2.8H1.57h.001-.062c-.531 0-1.055-.034-1.569-.099l.061.006c2.826 1.846 6.287 2.944 10.004 2.944h.063-.003c12.072 0 18.672-10 18.672-18.669 0-.288-.01-.57-.024-.848a13.203 13.203 0 003.258-3.355l.03-.047z"/></symbol><symbol id="icon-menu" viewBox="0 0 48 32"><path d="M0 5.334v-5.334h48v5.334h-48zM0 18.666h48v-5.332h-48v5.332zM0 32h48v-5.334h-48v5.334z"></path></symbol><symbol id="icon-menu-close" viewBox="0 0 32 32"><path d="M31.439 3.166l-3.166-3.166-12.554 12.552-12.552-12.552-3.166 3.166 12.552 12.552-12.552 12.554 3.166 3.166 12.552-12.554 12.554 12.554 3.166-3.166-12.554-12.554 12.554-12.552z"></path></symbol><symbol id="icon-telegram" viewBox="0 0 32 32"><path d="M16 0c-8.838 0-16 7.162-16 16s7.162 16 16 16 16-7.163 16-16-7.163-16-16-16zM23.863 10.969l-2.625 12.369c-0.181 0.881-0.712 1.087-1.45 0.681l-4-2.956-1.919 1.869c-0.225 0.219-0.4 0.4-0.8 0.4-0.519 0-0.431-0.194-0.606-0.688l-1.363-4.475-3.956-1.231c-0.856-0.262-0.862-0.85 0.194-1.269l15.412-5.95c0.7-0.319 1.381 0.169 1.113 1.25z"></path></symbol><symbol id="icon-whatsapp" viewBox="0 0 32 32"><path d="M27.281 4.65c-2.994-3-6.975-4.65-11.219-4.65-8.738 0-15.85 7.112-15.85 15.856 0 2.794 0.731 5.525 2.119 7.925l-2.25 8.219 8.406-2.206c2.319 1.262 4.925 1.931 7.575 1.931h0.006c0 0 0 0 0 0 8.738 0 15.856-7.113 15.856-15.856 0-4.238-1.65-8.219-4.644-11.219zM16.069 29.050v0c-2.369 0-4.688-0.637-6.713-1.837l-0.481-0.288-4.987 1.306 1.331-4.863-0.313-0.5c-1.325-2.094-2.019-4.519-2.019-7.012 0-7.269 5.912-13.181 13.188-13.181 3.519 0 6.831 1.375 9.319 3.862 2.488 2.494 3.856 5.8 3.856 9.325-0.006 7.275-5.919 13.188-13.181 13.188zM23.294 19.175c-0.394-0.2-2.344-1.156-2.706-1.288s-0.625-0.2-0.894 0.2c-0.262 0.394-1.025 1.288-1.256 1.556-0.231 0.262-0.462 0.3-0.856 0.1s-1.675-0.619-3.188-1.969c-1.175-1.050-1.975-2.35-2.206-2.744s-0.025-0.613 0.175-0.806c0.181-0.175 0.394-0.463 0.594-0.694s0.262-0.394 0.394-0.662c0.131-0.262 0.069-0.494-0.031-0.694s-0.894-2.15-1.219-2.944c-0.319-0.775-0.65-0.669-0.894-0.681-0.231-0.012-0.494-0.012-0.756-0.012s-0.694 0.1-1.056 0.494c-0.363 0.394-1.387 1.356-1.387 3.306s1.419 3.831 1.619 4.1c0.2 0.262 2.794 4.269 6.769 5.981 0.944 0.406 1.681 0.65 2.256 0.837 0.95 0.3 1.813 0.256 2.494 0.156 0.762-0.113 2.344-0.956 2.675-1.881s0.331-1.719 0.231-1.881c-0.094-0.175-0.356-0.275-0.756-0.475z"></path></symbol><symbol id="icon-key" viewBox="0 0 32 32"><path d="M22 0c-5.523 0-10 4.477-10 10 0 0.626 0.058 1.238 0.168 1.832l-12.168 12.168v6c0 1.105 0.895 2 2 2h2v-2h4v-4h4v-4h4l2.595-2.595c1.063 0.385 2.209 0.595 3.405 0.595 5.523 0 10-4.477 10-10s-4.477-10-10-10zM24.996 10.004c-1.657 0-3-1.343-3-3s1.343-3 3-3 3 1.343 3 3-1.343 3-3 3z"></path></symbol><symbol id="icon-circle-up" viewBox="0 0 32 32"><path d="M0 16c0 8.837 7.163 16 16 16s16-7.163 16-16-7.163-16-16-16-16 7.163-16 16zM29 16c0 7.18-5.82 13-13 13s-13-5.82-13-13 5.82-13 13-13 13 5.82 13 13z"></path><path d="M22.086 20.914l2.829-2.829-8.914-8.914-8.914 8.914 2.828 2.828 6.086-6.086z"></path></symbol><symbol id="icon-personal_account" viewBox="0 0 32 32">
<path d="M32 15.984c0-8.824-7.168-15.984-16-15.984s-16 7.16-16 15.984c0 4.86 2.208 9.24 5.664 12.18 0.032 0.032 0.064 0.032 0.064 0.064 0.288 0.224 0.576 0.448 0.896 0.672 0.16 0.096 0.288 0.222 0.448 0.35 2.644 1.793 5.765 2.751 8.96 2.75 3.195 0.001 6.316-0.957 8.96-2.75 0.16-0.096 0.288-0.222 0.448-0.32 0.288-0.222 0.608-0.446 0.896-0.67 0.032-0.032 0.064-0.032 0.064-0.064 3.392-2.974 5.6-7.352 5.6-12.212zM16 29.986c-3.008 0-5.76-0.96-8.032-2.558 0.032-0.256 0.096-0.51 0.16-0.766 0.191-0.694 0.47-1.36 0.832-1.982 0.352-0.608 0.768-1.152 1.28-1.632 0.48-0.48 1.056-0.926 1.632-1.278 0.608-0.352 1.248-0.608 1.952-0.8 0.709-0.191 1.441-0.287 2.176-0.286 2.181-0.015 4.282 0.821 5.856 2.332 0.736 0.736 1.312 1.6 1.728 2.59 0.224 0.576 0.384 1.184 0.48 1.822-2.362 1.66-5.177 2.553-8.064 2.558zM11.104 15.186c-0.282-0.646-0.424-1.344-0.416-2.048 0-0.702 0.128-1.406 0.416-2.046s0.672-1.214 1.152-1.694c0.48-0.48 1.056-0.862 1.696-1.15s1.344-0.416 2.048-0.416c0.736 0 1.408 0.128 2.048 0.416s1.216 0.672 1.696 1.15c0.48 0.48 0.864 1.056 1.152 1.694 0.288 0.64 0.416 1.344 0.416 2.046 0 0.736-0.128 1.408-0.416 2.046-0.278 0.631-0.668 1.205-1.152 1.696-0.491 0.483-1.066 0.873-1.696 1.15-1.322 0.543-2.806 0.543-4.128 0-0.63-0.277-1.205-0.667-1.696-1.15-0.484-0.484-0.865-1.061-1.12-1.696v0.002zM25.952 25.798c0-0.064-0.032-0.096-0.032-0.16-0.315-1.001-0.779-1.949-1.376-2.812-0.598-0.869-1.333-1.636-2.176-2.27-0.644-0.484-1.342-0.892-2.080-1.216 0.336-0.221 0.647-0.478 0.928-0.766 0.477-0.471 0.896-0.997 1.248-1.568 0.709-1.164 1.075-2.505 1.056-3.868 0.010-1.009-0.186-2.009-0.576-2.94-0.385-0.897-0.939-1.711-1.632-2.398-0.692-0.68-1.506-1.223-2.4-1.6-0.932-0.389-1.934-0.585-2.944-0.574-1.010-0.010-2.012 0.186-2.944 0.576-0.902 0.376-1.718 0.931-2.4 1.63-0.68 0.691-1.223 1.505-1.6 2.398-0.39 0.931-0.586 1.931-0.576 2.94 0 0.704 0.096 1.376 0.288 2.014 0.192 0.672 0.448 1.28 0.8 1.854 0.32 0.576 0.768 1.088 1.248 1.568 0.288 0.288 0.608 0.542 0.96 0.766-0.74 0.332-1.439 0.751-2.080 1.248-0.832 0.64-1.568 1.406-2.176 2.238-0.604 0.859-1.068 1.808-1.376 2.812-0.032 0.064-0.032 0.128-0.032 0.16-2.528-2.558-4.096-6.010-4.096-9.846 0-7.704 6.304-14.002 14.016-14.002s14.016 6.298 14.016 14.002c-0.004 3.68-1.465 7.209-4.064 9.814z"></path>
</symbol><symbol id="icon-calls" viewBox="0 0 32 32">
<path d="M30.401 16c0-7.953-6.447-14.4-14.4-14.4v2.4c6.627 0 12 5.373 12 12h2.4z"></path>
<path d="M1.621 8.59c0.073-0.96 0.389-1.659 1.138-2.453s2.24-2.214 2.24-2.214c0.979-0.967 2.209-0.96 3.188 0 0.606 0.593 1.206 1.199 1.805 1.805 0.193 0.193 0.386 0.385 0.579 0.578l0.003 0.003c0.389 0.388 0.78 0.777 1.168 1.169 1.022 1.034 1.028 2.239 0.006 3.267-0.489 0.489-0.805 0.791-1.182 1.151-0.189 0.18-0.393 0.376-0.642 0.616-0.196 0.19-0.214 0.349-0.11 0.587 0.49 1.175 1.199 2.221 1.995 3.199 1.603 1.97 3.415 3.719 5.575 5.071 0.465 0.287 1.143 0.648 1.456 0.765s0.416 0.092 0.618-0.116c0.438-0.453 0.744-0.746 1.080-1.069 0.222-0.213 0.459-0.44 0.756-0.735 0.979-0.967 2.203-0.973 3.182 0 1.199 1.187 2.393 2.38 3.58 3.578 0.997 1.003 0.991 2.233-0.012 3.242-0.227 0.229-0.455 0.463-0.683 0.698-0.454 0.467-0.908 0.934-1.349 1.352-1.014 0.959-2.105 1.383-3.439 1.309-1.946-0.104-3.739-0.752-5.471-1.59-3.843-1.866-7.123-4.453-9.87-7.72-2.032-2.422-3.708-5.053-4.81-8.026-0.532-1.438-0.918-2.906-0.802-4.466zM6.973 6.099c-0.209-0.205-0.232-0.227-0.378-0.227-0.149 0-0.224 0.070-0.362 0.198-0.022 0.021-0.046 0.043-0.072 0.066-0.187 0.17-1.636 1.623-1.636 1.623s-0.369 0.374-0.483 0.737c-0.115 0.362-0.043 1.234 0.056 1.73 0.809 4.051 3.688 8.043 6.243 10.74 2.595 2.74 6.293 5.439 10.692 6.797 0.558 0.172 2.019 0.315 2.468 0.145s0.883-0.579 0.883-0.579l1.265-1.29c0 0 0.4-0.361 0.4-0.581s-0.111-0.364-0.262-0.515c-1.43-1.437-2.218-2.232-2.364-2.385l-0.026-0.027c-0.224-0.235-0.331-0.346-0.522-0.346-0.184 0-0.367 0.192-0.483 0.315l-0.026 0.027c-1.517 1.581-2.036 1.995-2.964 2.068-1.518 0.12-4.466-1.522-7.586-4.687s-4.625-6.203-4.463-7.326c0.152-1.059 0.733-1.623 0.894-1.78l0.025-0.024c0.114-0.114 1.333-1.281 1.333-1.281s0.265-0.238 0.265-0.375c0-0.128-0.057-0.185-0.136-0.264l-0.018-0.018c-1.52-1.529-2.388-2.397-2.604-2.605-0.054-0.052-0.099-0.096-0.138-0.134z"></path>
<path d="M16.001 6.4c5.302 0 9.6 4.298 9.6 9.6h-2.4c0-3.976-3.224-7.2-7.2-7.2v-2.4z"></path>
</symbol></path>
</symbol></defs></svg>